<?xml version="1.0" encoding="utf-8"?>
<svg version="1.1" id="Layer_1" xmlns="http://www.w3.org/2000/svg" xmlns:xlink="http://www.w3.org/1999/xlink" x="0px" y="0px"
	 viewBox="0 0 608.9 468" style="enable-background:new 0 0 608.9 468;" xml:space="preserve">
<style type="text/css">
	.panel1{fill:none;stroke:none;stroke-linecap:round;stroke-linejoin:round;stroke-miterlimit:3;}
	.panel2{fill:#FFFFFF;stroke:#ee5586;stroke-linecap:round;stroke-linejoin:round;stroke-miterlimit:10;}
	.panel3{fill:#00b9f5;stroke:#00b9f5;stroke-linecap:round;stroke-linejoin:round;stroke-miterlimit:10;}
	.panel4{fill:#10205a;stroke:#ffffff;stroke-linecap:round;stroke-linejoin:round;stroke-miterlimit:10;}
	.panel5{fill:none;stroke:#808080;stroke-linecap:round;stroke-linejoin:round;stroke-miterlimit:10;}
	.panel6{fill:none;stroke:#FFFFFF;stroke-linecap:round;stroke-linejoin:round;stroke-miterlimit:10;}
	.panel7{fill:#ffffff;}
</style>
<path class="panel1" d="M18.1,54.6h518c9.1,0,16.4,7.4,16.4,16.4v378.9c0,9.1-7.4,16.4-16.4,16.4h-518c-9.1,0-16.4-7.4-16.4-16.4V71
	C1.6,62,9,54.6,18.1,54.6z"/>
<path class="panel2" d="M61.8,80.4c0,2.4-2,4.4-4.4,4.4c-2.4,0-4.4-2-4.4-4.4s2-4.4,4.4-4.4C59.9,76,61.8,78,61.8,80.4z"/>
<path class="panel3" d="M82.7,80.4c0,2.4-2,4.4-4.4,4.4c-2.4,0-4.4-2-4.4-4.4s2-4.4,4.4-4.4C80.7,76,82.7,78,82.7,80.4z"/>
<path class="panel3" d="M103.5,80.4c0,2.4-2,4.4-4.4,4.4c-2.4,0-4.4-2-4.4-4.4s2-4.4,4.4-4.4C101.6,76,103.5,78,103.5,80.4z"/>
<path class="panel3" d="M2.9,100.9h548.2"/>
<g>
	<rect x="46.9" y="126.7" id="svg-concept" class="panel4" width="464" height="47.7"/>
	<rect x="46.9" y="192.4" class="panel3" width="82.9" height="12.9"/>
	<rect x="149" y="192.4" class="panel3" width="361.4" height="13"/>
	<rect x="149.4" y="234.4" id="svg-concept" class="panel4" width="33.3" height="29"/>
	<rect x="269.7" y="234.4" class="panel3" width="33.3" height="29"/>
	<g>
	<rect id="svg-ico" x="389.8" y="234.4" width="33.3" height="29"/>
		<animate 
		attributeName="opacity"
        values="0;1;0" 
        dur="1s"
        repeatCount="indefinite"/>

        <animate 
			attributeName="fill"
			xlink:href="#svg-ico"
			calMode="linear"
			dur="1s"
			begin="0s"
			from="#ffffff" 
			to="#ee5486"  
			fill="freeze" />
    </g>
	<rect x="149.4" y="273.5" class="panel3" width="33.3" height="29"/>
	<rect x="269.7" y="273.5" id="svg-concept" class="panel4" width="33.3" height="29"/>
	<rect x="389.7" y="273.5" class="panel3" width="33.3" height="29"/>
	<line class="panel3" x1="46.9" y1="226.3" x2="129.7" y2="226.3"/>
	<line class="panel3" x1="46.9" y1="236.8" x2="129.7" y2="236.8"/>
	<line class="panel5" x1="199.8" y1="244.7" x2="252.2" y2="244.7"/>
	<line class="panel5" x1="199.8" y1="255.1" x2="243.4" y2="255.1"/>
	<line class="panel5" x1="318.5" y1="244.7" x2="370.9" y2="244.7"/>
	<line class="panel5" x1="318.5" y1="255.1" x2="362.1" y2="255.1"/>
	<line class="panel5" x1="437.2" y1="244.7" x2="489.6" y2="244.7"/>
	<line class="panel5" x1="437.2" y1="255.1" x2="480.8" y2="255.1"/>
	<line class="panel5" x1="199.8" y1="281.9" x2="252.2" y2="281.9"/>
	<line class="panel5" x1="199.8" y1="292.4" x2="243.4" y2="292.4"/>
	<line class="panel5" x1="318.5" y1="281.9" x2="370.9" y2="281.9"/>
	<line class="panel5" x1="318.5" y1="292.4" x2="362.1" y2="292.4"/>
	<line class="panel5" x1="437.2" y1="281.9" x2="489.6" y2="281.9"/>
	<line class="panel5" x1="437.2" y1="292.4" x2="480.8" y2="292.4"/>
	<rect x="149" y="327.6" class="panel3" width="361.4" height="13"/>
	<rect x="149.4" y="369.6" class="panel3" width="33.3" height="29"/>

	<g>
	<rect id="svg-ico" x="269.7" y="369.6" width="33.3" height="29"/>
		<animate 
		attributeName="opacity"
        values="0;1;0" 
        dur="1s"
        repeatCount="indefinite"/>

        <animate 
			attributeName="fill"
			xlink:href="#svg-ico"
			calMode="linear"
			dur="1s"
			begin="0.5s"
			from="#ffffff" 
			to="#ee5486"  
			fill="freeze" />
    </g>

	<rect x="389.8" y="369.6" class="panel3" width="33.3" height="29"/>
	<rect x="149.4" y="408.7" id="svg-concept" class="panel4" width="33.3" height="29"/>
	<rect x="269.7" y="408.7" class="panel3" width="33.3" height="29"/>
	<rect x="389.7" y="408.7" id="svg-concept" class="panel4" width="33.3" height="29"/>
	<line class="panel5" x1="199.8" y1="379.9" x2="252.2" y2="379.9"/>
	<line class="panel5" x1="199.8" y1="390.4" x2="243.4" y2="390.4"/>
	<line class="panel5" x1="318.5" y1="379.9" x2="370.9" y2="379.9"/>
	<line class="panel5" x1="318.5" y1="390.4" x2="362.1" y2="390.4"/>
	<line class="panel5" x1="437.2" y1="379.9" x2="489.6" y2="379.9"/>
	<line class="panel5" x1="437.2" y1="390.4" x2="480.8" y2="390.4"/>
	<line class="panel5" x1="199.8" y1="417.1" x2="252.2" y2="417.1"/>
	<line class="panel5" x1="199.8" y1="427.6" x2="243.4" y2="427.6"/>
	<line class="panel5" x1="318.5" y1="417.1" x2="370.9" y2="417.1"/>
	<line class="panel5" x1="318.5" y1="427.6" x2="362.1" y2="427.6"/>
	<line class="panel5" x1="437.2" y1="417.1" x2="489.6" y2="417.1"/>
	<line class="panel5" x1="437.2" y1="427.6" x2="480.8" y2="427.6"/>
	<line class="panel3" x1="46.9" y1="247.3" x2="129.7" y2="247.3"/>
	<line class="panel3" x1="46.9" y1="257.8" x2="129.7" y2="257.8"/>
	<line class="panel3" x1="46.9" y1="268.3" x2="129.7" y2="268.3"/>
	<line class="panel5" x1="46.9" y1="278.8" x2="129.7" y2="278.8"/>
	<line class="panel5" x1="46.9" y1="289.3" x2="129.7" y2="289.3"/>
	<line class="panel3" x1="46.9" y1="312.6" x2="129.7" y2="312.6"/>
	<line class="panel3" x1="46.9" y1="323.1" x2="129.7" y2="323.1"/>
	<line class="panel3" x1="46.9" y1="333.6" x2="129.7" y2="333.6"/>
	<line class="panel3" x1="46.9" y1="344.1" x2="129.7" y2="344.1"/>
	<line class="panel5" x1="46.9" y1="354.6" x2="129.7" y2="354.6"/>
	<line class="panel5" x1="46.9" y1="365.1" x2="129.7" y2="365.1"/>
	<line class="panel3" x1="46.9" y1="375.6" x2="129.7" y2="375.6"/>
	<line class="panel3" x1="46.9" y1="398.6" x2="83.2" y2="398.6"/>
	<line class="panel3" x1="46.9" y1="409.1" x2="83.2" y2="409.1"/>
	<line class="panel3" x1="46.9" y1="419.6" x2="83.2" y2="419.6"/>
	<line class="panel3" x1="46.9" y1="430.1" x2="83.2" y2="430.1"/>
	<line class="panel3" x1="93.6" y1="398.6" x2="129.9" y2="398.6"/>
	<line class="panel3" x1="93.6" y1="409.1" x2="129.9" y2="409.1"/>
	<line class="panel5" x1="93.6" y1="419.6" x2="129.9" y2="419.6"/>
	<line class="panel5" x1="93.6" y1="430.1" x2="129.9" y2="430.1"/>
</g>
<path class="panel6" d="M414.9,160.5c0,0.3-0.3,0.6-0.7,0.6h-72.4c-0.4,0-0.7-0.3-0.7-0.6v-18.7c0-0.3,0.3-0.6,0.7-0.6h72.4
	c0.4,0,0.7,0.3,0.7,0.6V160.5z"/>
<path class="panel6" d="M487.8,160.5c0,0.3-0.3,0.6-0.6,0.6h-55.7c-0.3,0-0.6-0.3-0.6-0.6v-18.7c0-0.3,0.2-0.6,0.6-0.6h55.7
	c0.3,0,0.6,0.3,0.6,0.6V160.5z"/>
<g>
	<path class="panel7" d="M103.3,150.8l0.1-0.3c0-0.1,0-0.2-0.1-0.3c-0.1-0.1-0.2-0.1-0.3-0.1h-8.1c-0.3,0-0.7-0.1-0.9-0.2
		c-0.3-0.1-0.5-0.3-0.7-0.6c-0.2-0.2-0.3-0.5-0.4-0.8s-0.1-0.6,0-1l0.5-1.9h11c0.7,0,1.3,0.1,1.9,0.5c0.6,0.3,1,0.7,1.4,1.2
		c0.4,0.5,0.6,1,0.8,1.7c0.1,0.6,0.1,1.3,0,1.9l-2,7.3c-0.2,0.7-0.6,1.4-1.2,1.8c-0.6,0.5-1.3,0.7-2.1,0.7l-8.1,0
		c-0.7,0-1.4-0.2-2-0.5c-0.6-0.3-1.1-0.7-1.5-1.2c-0.4-0.5-0.7-1.1-0.8-1.8c-0.2-0.7-0.1-1.3,0-2l0.1-0.4c0.1-0.5,0.3-0.9,0.6-1.3
		c0.3-0.4,0.6-0.7,1-1c0.4-0.3,0.8-0.5,1.2-0.7c0.5-0.2,0.9-0.2,1.4-0.2h6.8l-0.5,1.9c-0.1,0.4-0.4,0.8-0.8,1.1
		c-0.4,0.3-0.8,0.4-1.3,0.4h-3c-0.3,0-0.5,0.1-0.6,0.4c-0.1,0.2,0,0.3,0.1,0.5c0.1,0.1,0.3,0.2,0.4,0.2h4.9c0.2,0,0.3,0,0.5-0.1
		c0.1-0.1,0.2-0.2,0.2-0.4l0.1-0.2L103.3,150.8z"/>
	<g>
		<path class="panel7" d="M69.3,145.6H75l-0.9,3.3c-0.1,0.5-0.4,0.8-0.7,1.1c-0.4,0.3-0.8,0.4-1.3,0.4h-2.6c-0.6,0-1.1,0.2-1.6,0.5
			c-0.5,0.3-0.8,0.8-1,1.4c-0.1,0.5-0.1,0.9,0,1.3c0.1,0.4,0.3,0.8,0.5,1.1c0.2,0.3,0.5,0.6,0.9,0.7c0.4,0.2,0.8,0.3,1.2,0.3H71
			c0.3,0,0.5,0.1,0.7,0.4c0.2,0.2,0.2,0.5,0.2,0.8l-1,3.7h-1.7c-1.2,0-2.3-0.3-3.3-0.8c-1-0.5-1.8-1.2-2.5-2.1
			c-0.7-0.9-1.1-1.9-1.4-3c-0.2-1.1-0.2-2.2,0.1-3.4l0.1-0.4c0.2-0.8,0.6-1.5,1-2.2c0.5-0.7,1-1.2,1.6-1.7c0.6-0.5,1.3-0.8,2.1-1.1
			C67.7,145.7,68.5,145.6,69.3,145.6"/>
		<path class="panel7" d="M72.2,160.7l4.9-18.5c0.1-0.5,0.4-0.8,0.8-1.1c0.4-0.3,0.8-0.4,1.3-0.4h5.2c1.2,0,2.3,0.3,3.3,0.8
			c1,0.5,1.8,1.2,2.5,2.1c0.7,0.9,1.1,1.9,1.4,3c0.3,1.1,0.2,2.2-0.1,3.4l-0.1,0.4c-0.2,0.8-0.5,1.5-1,2.2c-0.4,0.7-1,1.3-1.6,1.7
			c-0.6,0.5-1.3,0.9-2.1,1.1c-0.8,0.3-1.6,0.4-2.4,0.4h-4.5l0.9-3.4c0.1-0.5,0.4-0.8,0.8-1.1c0.4-0.3,0.8-0.4,1.3-0.4h1.4
			c0.6,0,1.1-0.2,1.6-0.6c0.5-0.4,0.8-0.8,0.9-1.4c0.1-0.4,0.1-0.8,0-1.2c-0.1-0.4-0.3-0.8-0.5-1.1c-0.2-0.3-0.5-0.6-0.9-0.8
			c-0.4-0.2-0.8-0.3-1.2-0.3h-2.8l-3.6,13.6c-0.1,0.5-0.4,0.8-0.8,1.1c-0.4,0.3-0.8,0.4-1.3,0.4H72.2z"/>
		<path class="panel7" d="M117.9,145.6c1.2,0,2.3,0.3,3.3,0.8c1,0.5,1.8,1.2,2.5,2.1c0.7,0.9,1.1,1.9,1.4,3c0.2,1.1,0.2,2.3-0.1,3.4
			l-1.3,4.7c-0.1,0.3-0.3,0.6-0.5,0.8c-0.3,0.2-0.6,0.3-0.9,0.3h-2.7c-0.3,0-0.6-0.1-0.8-0.4c-0.2-0.2-0.2-0.5-0.1-0.8l1.5-5.7
			c0.1-0.4,0.1-0.8,0-1.2c-0.1-0.4-0.3-0.8-0.5-1.1c-0.2-0.3-0.5-0.6-0.9-0.7c-0.4-0.2-0.8-0.3-1.2-0.3h-2.8l-2.4,9.1
			c-0.1,0.3-0.3,0.6-0.5,0.8c-0.3,0.2-0.6,0.3-0.9,0.3h-2.7c-0.3,0-0.5-0.1-0.7-0.4c-0.2-0.2-0.2-0.5-0.2-0.8l3.7-13.9H117.9z"/>
		<path class="panel7" d="M132.6,150.4c-0.2,0.2-0.3,0.4-0.4,0.6l-1.1,4.3c-0.1,0.2,0,0.4,0.1,0.7c0.2,0.2,0.4,0.3,0.6,0.3h10.4l-0.8,3
			c-0.1,0.5-0.4,0.8-0.8,1.1c-0.4,0.3-0.8,0.4-1.3,0.4h-9.4c-0.7,0-1.3-0.1-1.9-0.4c-0.6-0.3-1-0.7-1.4-1.2c-0.4-0.5-0.6-1-0.8-1.7
			c-0.1-0.6-0.1-1.3,0.1-1.9l1.5-5.7c0.2-0.6,0.4-1.2,0.8-1.7c0.3-0.5,0.8-1,1.2-1.3c0.5-0.4,1-0.7,1.6-0.9c0.6-0.2,1.2-0.3,1.8-0.3
			h6.7c0.7,0,1.3,0.2,1.9,0.4c0.6,0.3,1,0.7,1.4,1.2c0.4,0.5,0.6,1,0.8,1.7c0.1,0.6,0.1,1.3-0.1,1.9l-0.5,1.7
			c-0.2,0.8-0.6,1.4-1.2,1.8c-0.6,0.5-1.3,0.7-2.1,0.7h-7.5l0.5-1.9c0.1-0.4,0.4-0.8,0.7-1.1c0.4-0.3,0.8-0.4,1.3-0.4h3.1
			c0.3,0,0.5-0.1,0.6-0.4l0.1-0.4c0.1-0.2,0-0.4-0.1-0.5c-0.1-0.2-0.3-0.2-0.5-0.2h-4.6C133,150.1,132.8,150.2,132.6,150.4"/>
		<path class="panel7" d="M142.1,160.7l5-18.9c0.1-0.3,0.3-0.6,0.5-0.8c0.3-0.2,0.6-0.3,0.9-0.3h2.7c0.3,0,0.6,0.1,0.8,0.4
			c0.2,0.2,0.2,0.5,0.2,0.8l-3.7,13.9c-0.2,0.7-0.5,1.4-0.9,2c-0.4,0.6-0.9,1.1-1.5,1.5c-0.6,0.4-1.2,0.8-1.9,1
			C143.6,160.5,142.9,160.7,142.1,160.7"/>
	</g>
</g>
<g>
<path id="svg-concept" class="panel2" d="M504.8,100.9c0,2.4-2,4.4-4.4,4.4c-2.4,0-4.4-2-4.4-4.4s2-4.4,4.4-4.4C502.8,96.5,504.8,98.4,504.8,100.9z"/>
	<animateMotion
	path="M40, 0 -495 0 45 0"
	begin="0s" 
	dur="12s" 
	repeatCount="indefinite"
	/>
</g>
<rect xmlns="http://www.w3.org/2000/svg" x="0" y="54.4" fill="none" stroke="#ddd" rx="10px" width="552.3" height="412"/>
</svg>
