<svg id="svg" version="1.1" xmlns="http://www.w3.org/2000/svg" xmlns:xlink="http://www.w3.org/1999/xlink" width="400" height="347.1186440677966" viewBox="0, 0, 400,347.1186440677966"><g id="svgg"><path id="path0" d="M199.475 5.642 C 198.823 7.017,198.191 8.103,197.678 8.730 C 197.465 8.989,196.794 10.139,196.185 11.285 C 195.576 12.431,194.702 13.993,194.243 14.757 C 193.783 15.521,193.162 16.615,192.861 17.188 C 192.560 17.760,191.939 18.854,191.482 19.618 C 191.025 20.382,190.301 21.632,189.874 22.396 C 188.553 24.759,188.076 25.584,186.372 28.447 C 185.464 29.971,184.722 31.357,184.722 31.527 C 184.722 31.698,184.410 32.120,184.028 32.465 C 183.646 32.811,183.333 33.230,183.333 33.397 C 183.333 33.648,179.546 40.301,176.490 45.417 C 176.068 46.123,175.476 47.170,175.174 47.743 C 174.451 49.115,173.437 50.892,172.398 52.604 C 171.934 53.368,171.377 54.423,171.160 54.948 C 170.943 55.473,170.637 55.903,170.479 55.903 C 170.322 55.903,170.012 56.450,169.792 57.118 C 169.571 57.786,169.262 58.333,169.104 58.333 C 168.947 58.333,168.651 58.763,168.447 59.288 C 168.243 59.813,167.685 60.868,167.207 61.632 C 166.729 62.396,166.094 63.490,165.796 64.063 C 165.498 64.635,164.907 65.682,164.484 66.388 C 161.753 70.949,160.417 73.278,160.417 73.480 C 160.417 73.608,159.841 74.580,159.138 75.639 C 158.435 76.699,157.497 78.239,157.055 79.061 C 156.612 79.883,155.855 81.290,155.372 82.189 C 154.889 83.087,154.286 84.063,154.032 84.359 C 152.737 85.866,152.813 88.920,154.167 89.757 C 154.363 89.879,154.756 90.475,155.039 91.083 C 155.322 91.690,155.865 92.656,156.244 93.229 C 156.624 93.802,157.086 94.614,157.271 95.033 C 157.456 95.453,158.176 96.605,158.872 97.594 C 159.567 98.584,160.293 99.842,160.484 100.391 C 160.675 100.940,160.973 101.389,161.145 101.389 C 161.317 101.389,161.458 101.599,161.458 101.857 C 161.458 102.114,161.773 102.687,162.158 103.131 C 162.780 103.849,162.830 104.924,162.269 105.541 C 162.190 105.628,160.139 105.830,157.712 105.989 C 155.285 106.149,152.558 106.443,151.652 106.643 C 150.747 106.843,147.989 107.117,145.524 107.252 C 140.563 107.522,140.430 107.580,139.242 109.959 C 138.787 110.869,138.065 112.130,137.637 112.761 C 137.208 113.392,136.522 114.568,136.112 115.374 C 135.701 116.181,134.994 117.465,134.539 118.229 C 134.085 118.993,133.599 119.846,133.459 120.125 C 133.318 120.403,132.530 121.724,131.706 123.060 C 130.882 124.396,130.208 125.640,130.208 125.825 C 130.208 126.009,129.997 126.407,129.739 126.709 C 129.481 127.010,128.895 127.958,128.437 128.814 C 127.979 129.671,127.264 130.886,126.849 131.515 C 126.434 132.144,125.759 133.318,125.349 134.124 C 124.939 134.931,124.149 136.293,123.593 137.153 C 123.038 138.012,122.431 139.059,122.244 139.480 C 122.058 139.900,121.470 140.916,120.939 141.737 C 120.408 142.558,119.776 143.620,119.535 144.097 C 119.294 144.575,118.734 145.590,118.291 146.354 C 117.848 147.118,116.987 148.666,116.378 149.795 C 115.769 150.924,115.095 152.058,114.881 152.317 C 114.507 152.767,113.883 153.844,112.704 156.076 C 112.402 156.649,111.846 157.587,111.470 158.160 C 111.094 158.733,110.541 159.743,110.241 160.404 C 109.941 161.066,109.581 161.691,109.441 161.793 C 109.302 161.896,108.988 162.370,108.744 162.847 C 108.499 163.325,107.918 164.340,107.451 165.104 C 106.984 165.868,106.360 166.962,106.065 167.535 C 105.769 168.108,105.151 169.201,104.691 169.965 C 104.231 170.729,103.707 171.675,103.525 172.066 C 103.343 172.458,102.728 173.474,102.157 174.323 C 101.586 175.173,100.596 176.884,99.957 178.125 C 99.318 179.366,98.595 180.509,98.349 180.664 C 98.103 180.819,97.993 181.092,98.103 181.271 C 98.433 181.804,134.111 181.699,134.802 181.163 C 135.311 180.769,136.534 178.764,138.084 175.781 C 138.406 175.161,138.781 174.653,138.916 174.653 C 139.050 174.653,139.251 174.301,139.361 173.872 C 139.471 173.442,140.077 172.309,140.708 171.354 C 141.339 170.399,142.299 168.759,142.841 167.708 C 143.384 166.658,144.014 165.564,144.243 165.278 C 144.471 164.991,144.843 164.366,145.069 163.889 C 145.296 163.411,145.632 162.786,145.817 162.500 C 146.001 162.214,147.204 160.104,148.490 157.813 C 149.776 155.521,150.930 153.568,151.055 153.472 C 151.269 153.308,151.688 152.581,152.953 150.174 C 153.254 149.601,153.874 148.507,154.331 147.743 C 154.787 146.979,155.411 145.885,155.718 145.313 C 156.024 144.740,156.653 143.646,157.116 142.882 C 157.579 142.118,158.178 141.024,158.448 140.451 C 159.662 137.873,161.373 137.363,170.660 136.816 C 173.715 136.636,176.761 136.326,177.428 136.126 C 179.677 135.454,181.164 135.654,181.845 136.719 C 182.181 137.244,182.654 137.880,182.895 138.132 C 183.136 138.385,183.333 138.738,183.333 138.917 C 183.333 139.097,183.849 139.984,184.479 140.889 C 185.109 141.794,185.831 143.043,186.084 143.663 C 186.336 144.284,186.665 144.792,186.814 144.792 C 186.963 144.792,187.258 145.221,187.469 145.747 C 187.680 146.272,188.308 147.405,188.864 148.264 C 189.999 150.017,190.174 151.101,189.423 151.725 C 189.144 151.957,188.816 152.459,188.695 152.842 C 188.574 153.224,188.018 154.214,187.460 155.041 C 186.902 155.867,186.209 157.064,185.920 157.699 C 185.631 158.334,185.126 159.270,184.798 159.778 C 184.032 160.965,182.134 164.254,181.824 164.931 C 181.693 165.217,181.131 166.155,180.576 167.014 C 180.020 167.873,179.062 169.514,178.447 170.660 C 177.831 171.806,176.927 173.368,176.437 174.132 C 175.311 175.889,174.459 177.375,173.975 178.426 C 173.767 178.878,173.290 179.639,172.914 180.116 C 171.766 181.577,172.015 181.597,190.559 181.592 C 209.533 181.586,209.158 181.621,210.111 179.800 C 211.596 176.960,211.859 176.483,212.664 175.174 C 213.133 174.410,213.763 173.316,214.064 172.743 C 214.365 172.170,214.985 171.076,215.442 170.313 C 215.898 169.549,216.517 168.455,216.816 167.882 C 217.115 167.309,217.671 166.372,218.051 165.799 C 218.431 165.226,218.931 164.366,219.161 163.889 C 219.391 163.411,219.765 162.786,219.993 162.500 C 220.221 162.214,220.868 161.107,221.431 160.040 C 221.995 158.974,223.028 157.239,223.728 156.185 C 224.428 155.131,225.000 154.030,225.000 153.739 C 225.000 153.448,225.226 153.022,225.503 152.793 C 227.066 151.495,226.880 149.692,224.841 146.354 C 224.374 145.590,223.792 144.575,223.548 144.097 C 223.304 143.620,222.994 143.148,222.859 143.048 C 222.723 142.949,222.439 142.480,222.226 142.007 C 222.013 141.533,221.463 140.521,221.003 139.757 C 220.543 138.993,219.904 137.899,219.583 137.326 C 219.263 136.753,218.883 136.207,218.741 136.111 C 218.598 136.016,218.236 135.350,217.938 134.633 C 217.039 132.475,219.043 131.772,227.083 131.427 C 235.585 131.062,238.928 130.241,239.825 128.299 C 240.089 127.726,240.680 126.632,241.136 125.868 C 241.593 125.104,242.208 124.010,242.504 123.438 C 242.800 122.865,243.238 122.083,243.478 121.701 C 243.719 121.319,244.433 120.187,245.065 119.186 C 245.698 118.184,246.379 116.895,246.579 116.321 C 246.779 115.747,247.073 115.278,247.233 115.278 C 247.392 115.278,247.627 114.949,247.754 114.548 C 247.882 114.146,248.349 113.282,248.793 112.628 C 249.237 111.974,249.941 110.779,250.357 109.973 C 250.773 109.167,251.449 107.935,251.859 107.236 C 254.280 103.108,254.861 102.073,254.861 101.890 C 254.861 101.778,255.095 101.452,255.382 101.166 C 255.983 100.565,256.074 98.921,255.536 98.384 C 255.096 97.944,254.013 96.026,253.458 94.705 C 253.238 94.180,252.935 93.750,252.786 93.750 C 252.637 93.750,252.309 93.242,252.058 92.622 C 251.807 92.001,251.498 91.415,251.371 91.319 C 251.243 91.224,250.609 90.184,249.962 89.008 C 248.401 86.174,245.200 80.516,244.788 79.861 C 244.463 79.346,242.536 76.113,241.094 73.664 C 240.683 72.966,239.842 71.404,239.225 70.192 L 238.103 67.987 237.365 68.803 C 236.959 69.251,236.439 70.040,236.210 70.555 C 235.982 71.071,235.360 72.165,234.829 72.986 C 234.297 73.807,233.666 74.870,233.427 75.347 C 232.805 76.588,230.941 79.881,230.283 80.903 C 229.975 81.380,229.268 82.630,228.711 83.681 C 228.154 84.731,227.501 85.825,227.259 86.111 C 227.016 86.398,226.711 86.984,226.580 87.413 C 226.449 87.843,226.212 88.194,226.052 88.194 C 225.893 88.194,225.585 88.624,225.368 89.149 C 225.150 89.674,224.589 90.729,224.121 91.493 C 223.652 92.257,223.031 93.351,222.740 93.924 C 222.450 94.497,222.019 95.278,221.784 95.660 C 221.548 96.042,220.890 97.111,220.321 98.036 C 218.961 100.245,218.009 100.694,214.687 100.696 C 213.198 100.697,210.573 100.915,208.854 101.182 C 204.941 101.789,199.666 102.117,198.896 101.802 C 198.217 101.523,196.528 99.143,196.528 98.465 C 196.528 98.210,196.284 97.800,195.987 97.553 C 195.689 97.306,195.218 96.623,194.939 96.035 C 194.247 94.575,193.280 92.920,192.990 92.701 C 192.859 92.602,192.578 92.133,192.365 91.660 C 192.152 91.186,191.599 90.174,191.136 89.410 C 189.615 86.900,189.301 85.417,190.292 85.417 C 190.449 85.417,190.686 85.065,190.818 84.635 C 190.949 84.206,191.233 83.640,191.449 83.379 C 191.838 82.906,193.956 79.247,194.992 77.257 C 195.290 76.684,195.875 75.639,196.291 74.935 C 196.708 74.230,198.267 71.574,199.757 69.032 C 201.246 66.490,202.608 64.175,202.783 63.889 C 202.958 63.602,203.614 62.456,204.241 61.341 C 204.869 60.226,205.655 58.898,205.988 58.390 C 206.321 57.881,206.908 56.840,207.292 56.076 C 207.676 55.313,208.296 54.219,208.671 53.646 C 209.046 53.073,209.593 52.135,209.887 51.563 C 210.181 50.990,210.772 49.941,211.200 49.231 C 212.574 46.957,214.111 44.286,214.354 43.750 C 214.485 43.464,214.863 42.812,215.195 42.301 C 215.527 41.791,216.535 40.102,217.434 38.547 L 219.070 35.721 218.302 34.204 C 217.603 32.823,215.994 30.053,213.988 26.777 C 213.565 26.086,212.968 25.052,212.662 24.479 C 212.356 23.906,211.732 22.813,211.275 22.049 C 210.818 21.285,210.203 20.191,209.907 19.618 C 209.612 19.045,208.991 17.951,208.528 17.188 C 208.065 16.424,207.440 15.330,207.139 14.757 C 206.838 14.184,206.242 13.133,205.813 12.421 C 205.385 11.710,204.588 10.304,204.041 9.296 C 203.494 8.289,202.841 7.231,202.589 6.944 C 202.338 6.657,201.968 5.993,201.769 5.468 C 201.259 4.126,200.153 4.210,199.475 5.642 M140.356 197.137 L 88.871 197.225 88.554 198.058 C 88.380 198.516,88.069 198.995,87.863 199.122 C 87.658 199.249,87.259 199.850,86.976 200.458 C 86.264 201.992,83.916 206.137,83.563 206.484 C 83.403 206.642,83.052 207.240,82.783 207.813 C 82.513 208.385,81.980 209.323,81.597 209.896 C 81.214 210.469,80.657 211.406,80.357 211.979 C 80.058 212.552,79.440 213.646,78.983 214.410 C 78.527 215.174,77.907 216.267,77.606 216.840 C 77.305 217.413,76.680 218.507,76.217 219.271 C 75.754 220.035,75.134 221.128,74.838 221.701 C 74.542 222.274,73.926 223.368,73.468 224.132 C 73.009 224.896,72.386 225.951,72.081 226.476 C 71.777 227.001,71.279 227.860,70.974 228.385 C 70.670 228.911,70.084 229.914,69.672 230.615 C 69.261 231.316,67.999 233.503,66.868 235.476 C 65.737 237.448,64.704 239.141,64.571 239.236 C 64.438 239.332,64.212 239.800,64.068 240.278 C 63.924 240.755,63.616 241.380,63.382 241.667 C 63.149 241.953,61.890 244.062,60.586 246.354 C 59.282 248.646,58.007 250.768,57.753 251.069 C 57.499 251.371,57.292 251.859,57.292 252.155 C 57.292 252.451,57.075 252.872,56.811 253.092 C 56.547 253.311,55.811 254.502,55.177 255.738 C 54.543 256.975,53.932 257.986,53.818 257.986 C 53.705 257.986,53.414 258.533,53.172 259.201 C 52.931 259.870,52.602 260.417,52.442 260.417 C 52.282 260.417,51.974 260.846,51.756 261.372 C 51.539 261.897,50.983 262.951,50.521 263.715 C 50.059 264.479,49.439 265.573,49.144 266.146 C 48.848 266.719,48.227 267.813,47.764 268.576 C 47.301 269.340,46.672 270.434,46.366 271.007 C 46.059 271.580,45.425 272.674,44.956 273.438 C 44.486 274.201,43.862 275.295,43.568 275.868 C 43.274 276.441,42.726 277.378,42.349 277.951 C 41.973 278.524,41.424 279.462,41.130 280.035 C 40.836 280.608,39.986 282.088,39.243 283.324 C 37.155 286.792,30.766 286.458,99.294 286.458 C 157.627 286.458,159.984 286.483,160.536 287.093 C 161.320 287.959,161.421 311.116,160.644 311.761 C 159.994 312.300,61.220 312.329,60.571 311.790 C 60.017 311.329,60.618 309.731,62.327 307.118 C 62.952 306.163,63.570 305.030,63.699 304.601 C 63.829 304.171,64.081 303.819,64.260 303.819 C 64.438 303.819,64.583 303.507,64.583 303.125 C 64.583 302.259,28.859 302.004,28.134 302.865 C 27.386 303.752,26.104 305.855,25.879 306.561 C 25.752 306.963,25.533 307.292,25.394 307.292 C 25.254 307.292,24.942 307.839,24.700 308.507 C 24.458 309.175,24.146 309.722,24.006 309.722 C 23.865 309.722,23.553 310.269,23.311 310.938 C 23.069 311.606,22.757 312.153,22.617 312.153 C 22.476 312.153,22.164 312.700,21.922 313.368 C 21.681 314.036,21.352 314.583,21.192 314.583 C 21.032 314.583,20.728 315.013,20.516 315.538 C 20.304 316.063,19.753 317.118,19.291 317.882 C 18.829 318.646,18.209 319.740,17.913 320.313 C 17.617 320.885,17.178 321.667,16.938 322.049 C 15.523 324.298,14.311 326.367,13.786 327.431 C 13.456 328.099,12.875 329.115,12.495 329.688 C 12.115 330.260,11.559 331.198,11.260 331.771 C 10.961 332.344,10.337 333.438,9.874 334.201 C 9.412 334.965,8.791 336.059,8.495 336.632 C 8.200 337.205,7.613 338.252,7.191 338.960 C 5.040 342.566,4.514 343.516,4.514 343.794 C 4.514 343.966,45.151 344.097,98.611 344.097 L 192.708 344.097 192.708 299.896 C 192.708 265.980,192.611 255.597,192.292 255.278 C 191.972 254.958,180.563 254.861,143.056 254.861 C 105.548 254.861,94.140 254.765,93.819 254.444 C 93.210 253.835,93.309 252.992,94.097 252.083 C 94.479 251.643,94.792 251.091,94.792 250.857 C 94.792 250.624,94.987 250.270,95.227 250.071 C 95.466 249.873,96.183 248.721,96.821 247.511 C 97.459 246.302,98.349 244.688,98.799 243.924 C 99.249 243.160,99.766 242.214,99.947 241.822 C 100.129 241.431,100.745 240.415,101.315 239.566 C 101.886 238.716,102.878 237.048,103.520 235.858 C 104.646 233.773,105.290 232.669,106.771 230.288 L 107.465 229.171 133.929 229.169 C 159.738 229.167,160.401 229.183,160.752 229.838 C 160.949 230.208,161.116 232.200,161.122 234.265 C 161.129 236.715,161.284 238.219,161.566 238.590 C 162.102 239.294,191.418 239.527,192.253 238.834 C 192.907 238.292,192.927 197.359,192.274 197.173 C 192.036 197.104,168.672 197.088,140.356 197.137 M209.028 197.164 C 208.485 197.345,208.554 285.498,209.097 286.042 C 209.418 286.362,222.957 286.458,267.925 286.458 L 326.336 286.458 327.404 287.357 C 327.991 287.852,328.474 288.438,328.476 288.659 C 328.477 288.881,329.072 290.000,329.797 291.146 C 330.522 292.292,331.227 293.464,331.363 293.750 C 331.500 294.036,331.993 294.896,332.460 295.660 C 332.927 296.424,333.555 297.517,333.856 298.090 C 334.157 298.663,334.781 299.757,335.244 300.521 C 335.706 301.285,336.261 302.339,336.479 302.865 C 336.696 303.390,337.004 303.819,337.164 303.819 C 337.324 303.819,337.653 304.366,337.895 305.035 C 338.136 305.703,338.447 306.250,338.584 306.250 C 338.722 306.250,339.016 306.797,339.236 307.465 C 339.457 308.134,339.758 308.681,339.905 308.681 C 340.475 308.681,341.278 311.408,340.820 311.788 C 340.024 312.449,241.308 312.290,240.644 311.627 C 240.222 311.204,240.100 310.235,240.087 307.185 C 240.077 305.038,239.950 303.091,239.806 302.857 C 239.429 302.248,209.706 302.239,209.097 302.847 C 208.783 303.162,208.681 308.264,208.681 323.681 L 208.681 344.097 302.778 344.097 C 363.285 344.097,396.875 343.977,396.875 343.761 C 396.875 343.283,395.477 340.660,395.098 340.426 C 394.924 340.318,394.552 339.733,394.273 339.126 C 393.993 338.518,393.610 337.786,393.422 337.500 C 393.234 337.214,392.566 336.067,391.939 334.952 C 391.312 333.837,390.527 332.509,390.196 332.001 C 389.865 331.492,389.439 330.724,389.249 330.294 C 389.060 329.864,387.847 327.715,386.553 325.519 C 383.532 320.388,382.907 319.299,381.778 317.188 C 381.268 316.233,380.336 314.670,379.708 313.715 C 379.080 312.760,378.037 311.018,377.391 309.844 C 376.744 308.669,375.290 306.091,374.158 304.115 C 373.027 302.138,371.936 300.208,371.733 299.826 C 371.530 299.444,370.827 298.284,370.171 297.247 C 368.788 295.062,366.858 291.618,366.154 290.077 C 365.885 289.488,365.422 288.805,365.124 288.558 C 364.827 288.311,364.583 287.964,364.583 287.786 C 364.583 287.609,363.646 285.839,362.500 283.854 C 361.354 281.869,360.417 280.100,360.417 279.922 C 360.417 279.744,360.166 279.391,359.860 279.137 C 359.553 278.882,359.155 278.355,358.974 277.966 C 358.793 277.576,358.269 276.632,357.809 275.868 C 357.349 275.104,356.737 274.010,356.450 273.438 C 356.162 272.865,355.530 271.771,355.045 271.007 C 354.559 270.243,353.923 269.149,353.630 268.576 C 353.337 268.003,352.721 266.910,352.261 266.146 C 351.801 265.382,351.251 264.369,351.038 263.896 C 350.825 263.422,350.529 262.954,350.379 262.854 C 350.230 262.755,349.888 262.257,349.620 261.747 C 347.805 258.301,346.035 255.502,345.484 255.207 C 345.063 254.982,326.816 254.861,293.104 254.861 L 241.370 254.861 240.672 253.974 C 239.690 252.725,239.868 230.341,240.867 229.601 C 241.323 229.263,247.222 229.167,267.583 229.167 L 293.715 229.167 294.591 230.316 C 295.073 230.948,295.958 232.393,296.558 233.528 C 297.158 234.662,297.865 235.837,298.130 236.138 C 298.394 236.440,298.611 236.863,298.611 237.079 C 298.611 237.295,299.041 237.870,299.566 238.358 L 300.521 239.243 318.110 239.226 C 333.310 239.211,335.727 239.139,335.897 238.695 C 336.132 238.083,336.003 237.845,329.079 226.100 C 328.554 225.208,327.964 224.167,327.769 223.785 C 327.574 223.403,327.038 222.465,326.578 221.701 C 326.118 220.937,325.496 219.844,325.195 219.271 C 324.894 218.698,324.266 217.604,323.799 216.840 C 323.332 216.076,322.751 215.061,322.506 214.583 C 322.262 214.106,321.960 213.637,321.834 213.542 C 321.709 213.446,321.354 212.821,321.047 212.153 C 320.739 211.484,320.214 210.522,319.879 210.013 C 319.187 208.961,317.257 205.643,316.883 204.861 C 316.746 204.575,316.252 203.715,315.785 202.951 C 315.318 202.187,314.734 201.172,314.486 200.694 C 314.238 200.217,313.674 199.240,313.233 198.524 L 312.431 197.222 290.330 197.220 C 278.175 197.219,254.987 197.180,238.802 197.133 C 222.617 197.087,209.219 197.101,209.028 197.164 " stroke="none" fill="#f8f8f8" fill-rule="evenodd"></path><path id="path1" d="M264.330 116.218 C 263.963 116.751,261.565 120.824,259.001 125.269 C 256.438 129.715,253.995 133.933,253.573 134.644 C 253.151 135.356,252.564 136.406,252.269 136.979 C 251.973 137.552,251.352 138.646,250.889 139.410 C 250.426 140.174,249.803 141.267,249.504 141.840 C 249.205 142.413,248.648 143.351,248.266 143.924 C 247.885 144.497,247.259 145.590,246.875 146.354 C 246.491 147.118,245.865 148.212,245.484 148.785 C 245.102 149.358,244.545 150.295,244.246 150.868 C 243.947 151.441,243.361 152.485,242.945 153.187 C 241.430 155.743,232.056 172.063,231.812 172.569 C 231.674 172.856,230.495 174.887,229.192 177.083 C 227.696 179.604,226.941 181.204,227.144 181.424 C 227.534 181.845,302.924 181.914,303.344 181.494 C 303.497 181.341,303.431 180.951,303.199 180.626 C 302.966 180.301,302.624 179.682,302.438 179.251 C 302.251 178.820,301.549 177.651,300.876 176.652 C 300.203 175.653,299.653 174.693,299.653 174.520 C 299.653 174.346,299.127 173.406,298.485 172.432 C 297.842 171.457,296.787 169.698,296.141 168.522 C 294.727 165.951,291.424 160.103,290.975 159.375 C 290.799 159.089,289.545 156.901,288.189 154.514 C 286.834 152.127,285.583 149.939,285.411 149.653 C 285.238 149.366,283.051 145.616,280.552 141.319 C 278.052 137.023,275.864 133.273,275.690 132.986 C 275.517 132.700,274.001 130.060,272.323 127.121 C 270.644 124.182,269.029 121.369,268.735 120.871 C 268.440 120.373,267.690 119.080,267.068 117.997 C 265.488 115.246,265.151 115.027,264.330 116.218 " stroke="none" fill="#f90405" fill-rule="evenodd"></path><path id="path2" d="M199.468 4.202 C 199.341 4.603,198.613 5.970,197.851 7.240 C 196.293 9.835,196.490 9.493,194.104 13.715 C 193.133 15.434,192.196 17.075,192.023 17.361 C 191.850 17.648,188.378 23.628,184.309 30.650 C 180.239 37.672,176.570 44.001,176.154 44.712 C 175.739 45.424,175.063 46.667,174.652 47.473 C 174.242 48.279,173.522 49.504,173.053 50.195 C 172.584 50.886,171.733 52.336,171.162 53.417 C 170.590 54.498,169.832 55.851,169.477 56.424 C 167.841 59.059,164.236 65.340,164.234 65.557 C 164.233 65.690,163.531 66.814,162.674 68.056 C 161.817 69.297,161.114 70.409,161.113 70.527 C 161.111 70.715,159.476 73.619,157.062 77.718 C 156.649 78.419,155.814 79.931,155.206 81.076 C 154.598 82.222,153.881 83.406,153.613 83.708 C 153.344 84.009,153.125 84.420,153.125 84.620 C 153.125 84.821,152.891 85.179,152.604 85.417 C 152.047 85.879,151.874 88.194,152.397 88.194 C 152.569 88.194,152.890 88.624,153.111 89.149 C 153.591 90.292,154.359 91.641,155.729 93.750 C 156.288 94.609,156.985 95.736,157.279 96.254 C 157.572 96.772,158.672 98.642,159.722 100.409 C 160.773 102.177,161.681 103.736,161.740 103.873 C 162.075 104.644,159.912 105.230,155.529 105.555 C 141.217 106.617,140.078 106.885,138.750 109.510 C 138.216 110.566,137.560 111.612,137.292 111.834 C 137.025 112.056,136.806 112.379,136.806 112.552 C 136.806 112.798,132.126 121.077,130.554 123.611 C 130.377 123.898,129.436 125.538,128.465 127.257 C 127.494 128.976,126.556 130.616,126.382 130.903 C 126.086 131.388,123.585 135.797,121.487 139.529 C 120.988 140.418,120.098 141.927,119.510 142.882 C 118.922 143.837,117.948 145.556,117.347 146.701 C 116.745 147.847,116.034 149.031,115.766 149.333 C 115.497 149.634,115.278 150.201,115.278 150.592 C 115.278 150.984,115.038 151.503,114.744 151.747 C 114.451 151.990,113.631 153.188,112.921 154.409 C 112.212 155.630,111.282 157.207,110.855 157.915 C 110.427 158.623,109.904 159.631,109.692 160.156 C 109.480 160.681,109.181 161.111,109.028 161.111 C 108.874 161.111,108.571 161.541,108.354 162.066 C 108.136 162.591,107.613 163.591,107.191 164.289 C 106.524 165.392,105.480 167.195,103.104 171.354 C 102.777 171.927,101.376 174.336,99.990 176.707 C 96.487 182.705,94.763 182.099,115.663 182.218 C 137.662 182.343,134.695 183.104,138.610 176.326 C 140.386 173.249,142.077 170.324,142.367 169.827 C 142.656 169.330,143.594 167.695,144.450 166.193 C 145.306 164.692,146.348 162.895,146.764 162.200 C 147.181 161.506,147.772 160.469,148.079 159.896 C 148.385 159.323,148.888 158.385,149.195 157.813 C 149.503 157.240,150.241 155.990,150.836 155.035 C 152.499 152.367,152.677 152.058,153.843 149.826 C 154.441 148.681,155.110 147.529,155.330 147.268 C 155.773 146.740,158.053 142.771,158.847 141.146 C 160.026 138.732,160.404 138.504,163.739 138.192 C 165.445 138.032,168.168 137.745,169.792 137.552 C 171.415 137.360,174.640 137.097,176.959 136.968 L 181.176 136.733 182.081 138.065 C 182.579 138.798,182.986 139.509,182.986 139.647 C 182.986 139.784,183.439 140.568,183.993 141.389 C 184.546 142.210,185.506 143.819,186.125 144.965 C 186.744 146.111,187.444 147.283,187.680 147.569 C 189.738 150.060,189.905 149.597,182.118 162.993 C 180.590 165.621,178.809 168.734,178.159 169.910 C 177.510 171.086,176.574 172.674,176.080 173.438 C 175.586 174.201,174.979 175.217,174.731 175.694 C 174.483 176.172,173.901 177.188,173.439 177.951 C 170.564 182.695,168.969 182.292,190.603 182.292 C 211.020 182.292,209.488 182.515,211.094 179.301 C 211.555 178.378,212.282 177.106,212.710 176.475 C 213.139 175.844,213.830 174.668,214.246 173.862 C 214.662 173.055,215.371 171.771,215.821 171.007 C 216.272 170.243,216.993 168.993,217.423 168.229 C 217.853 167.465,218.367 166.572,218.564 166.245 C 219.328 164.981,227.018 151.522,227.389 150.801 C 227.718 150.161,227.615 149.774,226.738 148.371 C 226.164 147.453,225.456 146.233,225.163 145.660 C 224.870 145.087,224.362 144.201,224.034 143.691 C 223.312 142.569,219.456 136.038,218.808 134.841 C 218.218 133.752,218.507 132.992,219.520 132.965 C 219.956 132.953,221.484 132.806,222.917 132.638 C 224.349 132.471,228.313 132.087,231.725 131.786 C 238.347 131.202,239.599 130.797,240.125 129.071 C 240.254 128.646,240.561 128.064,240.807 127.778 C 241.052 127.491,241.744 126.319,242.344 125.174 C 242.945 124.028,244.203 121.840,245.140 120.313 C 246.077 118.785,246.851 117.360,246.860 117.148 C 246.868 116.935,247.165 116.388,247.519 115.932 C 248.649 114.479,256.597 100.420,256.597 99.875 C 256.597 99.228,256.124 98.139,255.113 96.457 C 252.655 92.366,250.845 89.259,250.109 87.867 C 249.648 86.997,248.790 85.503,248.202 84.549 C 247.613 83.594,246.674 81.953,246.116 80.903 C 245.557 79.852,244.651 78.290,244.103 77.431 C 243.556 76.571,242.770 75.252,242.357 74.498 C 240.467 71.046,238.455 67.696,238.165 67.517 C 237.812 67.298,235.764 69.386,235.764 69.964 C 235.764 70.164,235.253 71.106,234.628 72.057 C 234.004 73.007,233.049 74.644,232.506 75.694 C 231.963 76.745,231.303 77.851,231.038 78.152 C 230.772 78.454,230.556 78.862,230.556 79.060 C 230.556 79.258,230.257 79.800,229.892 80.264 C 229.527 80.727,228.739 82.038,228.139 83.175 C 227.540 84.312,226.745 85.751,226.372 86.372 C 225.999 86.992,225.421 87.953,225.087 88.507 C 224.051 90.225,221.764 94.219,221.191 95.313 C 218.896 99.689,218.578 99.844,210.933 100.327 C 207.689 100.532,204.175 100.868,203.125 101.073 C 199.355 101.810,199.037 101.650,196.868 97.917 C 195.813 96.102,194.517 93.946,193.988 93.125 C 193.459 92.305,192.870 91.289,192.680 90.869 C 192.490 90.448,191.953 89.479,191.486 88.715 C 190.270 86.727,190.275 86.698,192.480 82.918 C 196.168 76.597,203.192 64.435,204.167 62.683 C 204.835 61.482,205.553 60.285,205.762 60.024 C 205.971 59.763,206.252 59.314,206.386 59.028 C 206.521 58.741,206.974 57.931,207.395 57.226 C 210.065 52.755,218.861 37.487,219.510 36.198 C 219.923 35.378,219.781 34.923,218.486 32.920 C 217.556 31.481,204.151 8.278,202.778 5.730 C 201.448 3.264,199.981 2.586,199.468 4.202 M201.769 5.468 C 201.968 5.993,202.338 6.657,202.589 6.944 C 202.841 7.231,203.494 8.289,204.041 9.296 C 204.588 10.304,205.385 11.710,205.813 12.421 C 206.242 13.133,206.838 14.184,207.139 14.757 C 207.440 15.330,208.065 16.424,208.528 17.188 C 208.991 17.951,209.612 19.045,209.907 19.618 C 210.203 20.191,210.818 21.285,211.275 22.049 C 211.732 22.813,212.356 23.906,212.662 24.479 C 212.968 25.052,213.565 26.086,213.988 26.777 C 215.994 30.053,217.603 32.823,218.302 34.204 L 219.070 35.721 217.434 38.547 C 216.535 40.102,215.527 41.791,215.195 42.301 C 214.863 42.812,214.485 43.464,214.354 43.750 C 214.111 44.286,212.574 46.957,211.200 49.231 C 210.772 49.941,210.181 50.990,209.887 51.563 C 209.593 52.135,209.046 53.073,208.671 53.646 C 208.296 54.219,207.676 55.313,207.292 56.076 C 206.908 56.840,206.321 57.881,205.988 58.390 C 205.655 58.898,204.869 60.226,204.241 61.341 C 203.614 62.456,202.958 63.602,202.783 63.889 C 202.608 64.175,201.246 66.490,199.757 69.032 C 198.267 71.574,196.708 74.230,196.291 74.935 C 195.875 75.639,195.290 76.684,194.992 77.257 C 193.956 79.247,191.838 82.906,191.449 83.379 C 191.233 83.640,190.949 84.206,190.818 84.635 C 190.686 85.065,190.449 85.417,190.292 85.417 C 189.301 85.417,189.615 86.900,191.136 89.410 C 191.599 90.174,192.152 91.186,192.365 91.660 C 192.578 92.133,192.859 92.602,192.990 92.701 C 193.280 92.920,194.247 94.575,194.939 96.035 C 195.218 96.623,195.689 97.306,195.987 97.553 C 196.284 97.800,196.528 98.210,196.528 98.465 C 196.528 99.143,198.217 101.523,198.896 101.802 C 199.666 102.117,204.941 101.789,208.854 101.182 C 210.573 100.915,213.198 100.697,214.687 100.696 C 218.009 100.694,218.961 100.245,220.321 98.036 C 220.890 97.111,221.548 96.042,221.784 95.660 C 222.019 95.278,222.450 94.497,222.740 93.924 C 223.031 93.351,223.652 92.257,224.121 91.493 C 224.589 90.729,225.150 89.674,225.368 89.149 C 225.585 88.624,225.893 88.194,226.052 88.194 C 226.212 88.194,226.449 87.843,226.580 87.413 C 226.711 86.984,227.016 86.398,227.259 86.111 C 227.501 85.825,228.154 84.731,228.711 83.681 C 229.268 82.630,229.975 81.380,230.283 80.903 C 230.941 79.881,232.805 76.588,233.427 75.347 C 233.666 74.870,234.297 73.807,234.829 72.986 C 235.360 72.165,235.982 71.071,236.210 70.555 C 236.439 70.040,236.959 69.251,237.365 68.803 L 238.103 67.987 239.225 70.192 C 239.842 71.404,240.683 72.966,241.094 73.664 C 242.536 76.113,244.463 79.346,244.788 79.861 C 245.200 80.516,248.401 86.174,249.962 89.008 C 250.609 90.184,251.243 91.224,251.371 91.319 C 251.498 91.415,251.807 92.001,252.058 92.622 C 252.309 93.242,252.637 93.750,252.786 93.750 C 252.935 93.750,253.238 94.180,253.458 94.705 C 254.013 96.026,255.096 97.944,255.536 98.384 C 256.074 98.921,255.983 100.565,255.382 101.166 C 255.095 101.452,254.861 101.778,254.861 101.890 C 254.861 102.073,254.280 103.108,251.859 107.236 C 251.449 107.935,250.773 109.167,250.357 109.973 C 249.941 110.779,249.237 111.974,248.793 112.628 C 248.349 113.282,247.882 114.146,247.754 114.548 C 247.627 114.949,247.392 115.278,247.233 115.278 C 247.073 115.278,246.779 115.747,246.579 116.321 C 246.379 116.895,245.698 118.184,245.065 119.186 C 244.433 120.187,243.719 121.319,243.478 121.701 C 243.238 122.083,242.800 122.865,242.504 123.438 C 242.208 124.010,241.593 125.104,241.136 125.868 C 240.680 126.632,240.089 127.726,239.825 128.299 C 238.928 130.241,235.585 131.062,227.083 131.427 C 219.043 131.772,217.039 132.475,217.938 134.633 C 218.236 135.350,218.598 136.016,218.741 136.111 C 218.883 136.207,219.263 136.753,219.583 137.326 C 219.904 137.899,220.543 138.993,221.003 139.757 C 221.463 140.521,222.013 141.533,222.226 142.007 C 222.439 142.480,222.723 142.949,222.859 143.048 C 222.994 143.148,223.304 143.620,223.548 144.097 C 223.792 144.575,224.374 145.590,224.841 146.354 C 226.880 149.692,227.066 151.495,225.503 152.793 C 225.226 153.022,225.000 153.448,225.000 153.739 C 225.000 154.030,224.428 155.131,223.728 156.185 C 223.028 157.239,221.995 158.974,221.431 160.040 C 220.868 161.107,220.221 162.214,219.993 162.500 C 219.765 162.786,219.391 163.411,219.161 163.889 C 218.931 164.366,218.431 165.226,218.051 165.799 C 217.671 166.372,217.115 167.309,216.816 167.882 C 216.517 168.455,215.898 169.549,215.442 170.313 C 214.985 171.076,214.365 172.170,214.064 172.743 C 213.763 173.316,213.133 174.410,212.664 175.174 C 211.859 176.483,211.596 176.960,210.111 179.800 C 209.158 181.621,209.533 181.586,190.559 181.592 C 172.015 181.597,171.766 181.577,172.914 180.116 C 173.290 179.639,173.767 178.878,173.975 178.426 C 174.459 177.375,175.311 175.889,176.437 174.132 C 176.927 173.368,177.831 171.806,178.447 170.660 C 179.062 169.514,180.020 167.873,180.576 167.014 C 181.131 166.155,181.693 165.217,181.824 164.931 C 182.134 164.254,184.032 160.965,184.798 159.778 C 185.126 159.270,185.631 158.334,185.920 157.699 C 186.209 157.064,186.902 155.867,187.460 155.041 C 188.018 154.214,188.574 153.224,188.695 152.842 C 188.816 152.459,189.144 151.957,189.423 151.725 C 190.174 151.101,189.999 150.017,188.864 148.264 C 188.308 147.405,187.680 146.272,187.469 145.747 C 187.258 145.221,186.963 144.792,186.814 144.792 C 186.665 144.792,186.336 144.284,186.084 143.663 C 185.831 143.043,185.109 141.794,184.479 140.889 C 183.849 139.984,183.333 139.097,183.333 138.917 C 183.333 138.738,183.136 138.385,182.895 138.132 C 182.654 137.880,182.181 137.244,181.845 136.719 C 181.164 135.654,179.677 135.454,177.428 136.126 C 176.761 136.326,173.715 136.636,170.660 136.816 C 161.373 137.363,159.662 137.873,158.448 140.451 C 158.178 141.024,157.579 142.118,157.116 142.882 C 156.653 143.646,156.024 144.740,155.718 145.313 C 155.411 145.885,154.787 146.979,154.331 147.743 C 153.874 148.507,153.254 149.601,152.953 150.174 C 151.688 152.581,151.269 153.308,151.055 153.472 C 150.930 153.568,149.776 155.521,148.490 157.813 C 147.204 160.104,146.001 162.214,145.817 162.500 C 145.632 162.786,145.296 163.411,145.069 163.889 C 144.843 164.366,144.471 164.991,144.243 165.278 C 144.014 165.564,143.384 166.658,142.841 167.708 C 142.299 168.759,141.339 170.399,140.708 171.354 C 140.077 172.309,139.471 173.442,139.361 173.872 C 139.251 174.301,139.050 174.653,138.916 174.653 C 138.781 174.653,138.406 175.161,138.084 175.781 C 136.534 178.764,135.311 180.769,134.802 181.163 C 134.111 181.699,98.433 181.804,98.103 181.271 C 97.993 181.092,98.103 180.819,98.349 180.664 C 98.595 180.509,99.318 179.366,99.957 178.125 C 100.596 176.884,101.586 175.173,102.157 174.323 C 102.728 173.474,103.343 172.458,103.525 172.066 C 103.707 171.675,104.231 170.729,104.691 169.965 C 105.151 169.201,105.769 168.108,106.065 167.535 C 106.360 166.962,106.984 165.868,107.451 165.104 C 107.918 164.340,108.499 163.325,108.744 162.847 C 108.988 162.370,109.302 161.896,109.441 161.793 C 109.581 161.691,109.941 161.066,110.241 160.404 C 110.541 159.743,111.094 158.733,111.470 158.160 C 111.846 157.587,112.402 156.649,112.704 156.076 C 113.883 153.844,114.507 152.767,114.881 152.317 C 115.095 152.058,115.769 150.924,116.378 149.795 C 116.987 148.666,117.848 147.118,118.291 146.354 C 118.734 145.590,119.294 144.575,119.535 144.097 C 119.776 143.620,120.408 142.558,120.939 141.737 C 121.470 140.916,122.058 139.900,122.244 139.480 C 122.431 139.059,123.038 138.012,123.593 137.153 C 124.149 136.293,124.939 134.931,125.349 134.124 C 125.759 133.318,126.434 132.144,126.849 131.515 C 127.264 130.886,127.979 129.671,128.437 128.814 C 128.895 127.958,129.481 127.010,129.739 126.709 C 129.997 126.407,130.208 126.009,130.208 125.825 C 130.208 125.640,130.882 124.396,131.706 123.060 C 132.530 121.724,133.318 120.403,133.459 120.125 C 133.599 119.846,134.085 118.993,134.539 118.229 C 134.994 117.465,135.701 116.181,136.112 115.374 C 136.522 114.568,137.208 113.392,137.637 112.761 C 138.065 112.130,138.787 110.869,139.242 109.959 C 140.430 107.580,140.563 107.522,145.524 107.252 C 147.989 107.117,150.747 106.843,151.652 106.643 C 152.558 106.443,155.285 106.149,157.712 105.989 C 160.139 105.830,162.190 105.628,162.269 105.541 C 162.830 104.924,162.780 103.849,162.158 103.131 C 161.773 102.687,161.458 102.114,161.458 101.857 C 161.458 101.599,161.317 101.389,161.145 101.389 C 160.973 101.389,160.675 100.940,160.484 100.391 C 160.293 99.842,159.567 98.584,158.872 97.594 C 158.176 96.605,157.456 95.453,157.271 95.033 C 157.086 94.614,156.624 93.802,156.244 93.229 C 155.865 92.656,155.322 91.690,155.039 91.083 C 154.756 90.475,154.363 89.879,154.167 89.757 C 152.813 88.920,152.737 85.866,154.032 84.359 C 154.286 84.063,154.889 83.087,155.372 82.189 C 155.855 81.290,156.612 79.883,157.055 79.061 C 157.497 78.239,158.435 76.699,159.138 75.639 C 159.841 74.580,160.417 73.608,160.417 73.480 C 160.417 73.278,161.753 70.949,164.484 66.388 C 164.907 65.682,165.498 64.635,165.796 64.063 C 166.094 63.490,166.729 62.396,167.207 61.632 C 167.685 60.868,168.243 59.813,168.447 59.288 C 168.651 58.763,168.947 58.333,169.104 58.333 C 169.262 58.333,169.571 57.786,169.792 57.118 C 170.012 56.450,170.322 55.903,170.479 55.903 C 170.637 55.903,170.943 55.473,171.160 54.948 C 171.377 54.423,171.934 53.368,172.398 52.604 C 173.437 50.892,174.451 49.115,175.174 47.743 C 175.476 47.170,176.068 46.123,176.490 45.417 C 179.546 40.301,183.333 33.648,183.333 33.397 C 183.333 33.230,183.646 32.811,184.028 32.465 C 184.410 32.120,184.722 31.698,184.722 31.527 C 184.722 31.357,185.464 29.971,186.372 28.447 C 188.076 25.584,188.553 24.759,189.874 22.396 C 190.301 21.632,191.025 20.382,191.482 19.618 C 191.939 18.854,192.560 17.760,192.861 17.188 C 193.162 16.615,193.783 15.521,194.243 14.757 C 194.702 13.993,195.576 12.431,196.185 11.285 C 196.794 10.139,197.465 8.989,197.678 8.730 C 198.191 8.103,198.823 7.017,199.475 5.642 C 200.153 4.210,201.259 4.126,201.769 5.468 M88.715 196.794 C 88.175 197.190,87.039 198.947,85.966 201.042 C 85.428 202.092,84.830 203.149,84.636 203.390 C 84.294 203.814,83.632 204.967,82.496 207.118 C 82.193 207.691,81.633 208.628,81.250 209.201 C 80.867 209.774,80.309 210.712,80.010 211.285 C 79.711 211.858,79.089 212.951,78.629 213.715 C 78.168 214.479,77.595 215.495,77.354 215.972 C 77.113 216.450,76.575 217.353,76.158 217.979 C 75.741 218.605,75.065 219.776,74.656 220.583 C 74.247 221.389,73.650 222.469,73.328 222.983 C 73.006 223.498,70.243 228.234,67.188 233.509 C 64.132 238.785,61.284 243.676,60.858 244.380 C 60.432 245.084,59.975 245.894,59.843 246.181 C 59.622 246.659,57.036 251.197,55.382 254.009 C 55.000 254.658,54.161 256.171,53.518 257.369 C 52.875 258.568,52.156 259.783,51.921 260.069 C 51.687 260.356,51.385 260.825,51.251 261.111 C 51.118 261.398,50.629 262.257,50.165 263.021 C 49.702 263.785,49.153 264.795,48.946 265.266 C 48.740 265.738,48.385 266.342,48.157 266.610 C 47.929 266.878,47.196 268.073,46.528 269.267 C 45.149 271.729,42.366 276.616,41.842 277.494 C 40.378 279.946,37.149 285.705,36.964 286.193 C 36.474 287.482,37.314 287.500,99.085 287.500 C 145.676 287.500,159.679 287.596,160.000 287.917 C 160.544 288.461,160.598 310.124,160.057 311.134 C 159.684 311.832,62.316 312.230,61.228 311.538 C 60.783 311.255,61.235 310.055,62.500 308.160 C 62.883 307.587,63.446 306.571,63.751 305.903 C 64.056 305.234,64.536 304.428,64.818 304.111 C 65.099 303.793,65.279 303.090,65.217 302.548 L 65.104 301.563 47.118 301.473 C 35.392 301.414,28.903 301.506,28.471 301.737 C 27.699 302.150,25.960 304.727,24.137 308.160 C 23.427 309.497,22.639 310.825,22.385 311.112 C 22.131 311.399,21.759 312.024,21.558 312.501 C 21.357 312.978,20.798 313.993,20.316 314.757 C 19.834 315.521,19.204 316.615,18.916 317.188 C 18.370 318.273,18.233 318.506,16.465 321.354 C 15.872 322.309,14.943 323.950,14.399 325.000 C 13.856 326.050,12.896 327.714,12.266 328.697 C 11.636 329.681,10.957 330.853,10.758 331.302 C 10.558 331.751,8.848 334.772,6.958 338.015 C 4.419 342.372,3.617 344.027,3.887 344.352 C 4.502 345.094,192.462 344.989,193.204 344.246 C 193.695 343.756,193.750 339.229,193.750 299.612 L 193.750 255.524 192.896 254.670 L 192.041 253.815 143.352 253.822 C 94.215 253.829,93.444 253.809,94.463 252.582 C 94.978 251.961,95.504 251.104,96.369 249.479 C 96.673 248.906,97.264 247.862,97.680 247.158 C 100.696 242.062,103.472 237.221,103.472 237.059 C 103.472 236.953,103.980 236.077,104.601 235.113 C 105.221 234.149,106.198 232.582,106.771 231.631 C 107.344 230.680,108.125 229.817,108.507 229.713 C 109.761 229.371,159.173 229.506,159.722 229.853 C 160.125 230.108,160.283 231.192,160.417 234.622 C 160.512 237.064,160.717 239.258,160.871 239.497 C 161.219 240.034,192.211 240.125,193.056 239.591 C 193.910 239.051,194.022 197.586,193.171 196.963 C 192.505 196.476,89.375 196.309,88.715 196.794 M208.247 196.903 C 207.403 197.394,207.291 285.502,208.132 286.652 C 208.616 287.314,209.675 287.328,267.562 287.416 C 309.352 287.480,326.631 287.616,326.953 287.883 C 327.203 288.091,327.985 289.300,328.691 290.571 C 329.397 291.842,330.070 292.960,330.186 293.056 C 330.301 293.151,330.596 293.620,330.840 294.097 C 331.084 294.575,331.660 295.590,332.121 296.354 C 332.581 297.118,333.195 298.212,333.486 298.785 C 333.776 299.358,334.168 300.061,334.356 300.347 C 334.544 300.634,335.211 301.780,335.839 302.895 C 336.466 304.010,337.247 305.338,337.575 305.847 C 338.884 307.876,340.294 310.914,340.128 311.347 C 339.795 312.215,241.797 312.004,241.332 311.134 C 241.134 310.765,240.972 308.679,240.972 306.500 C 240.972 300.848,242.729 301.389,224.365 301.389 C 209.491 301.389,209.007 301.410,208.333 302.083 C 207.262 303.154,207.240 343.860,208.311 344.432 C 209.556 345.099,397.196 344.917,397.452 344.249 C 397.689 343.633,396.795 341.838,393.399 336.111 C 392.097 333.915,390.562 331.259,389.988 330.208 C 387.070 324.871,381.106 314.590,379.798 312.641 C 379.273 311.859,378.682 310.844,378.485 310.384 C 378.131 309.558,377.995 309.321,376.520 306.944 C 376.105 306.276,375.394 305.026,374.940 304.167 C 374.487 303.307,373.859 302.214,373.546 301.736 C 373.233 301.259,372.534 300.068,371.992 299.090 C 371.450 298.112,368.273 292.585,364.931 286.808 C 361.589 281.030,358.244 275.189,357.499 273.829 C 356.753 272.468,356.050 271.276,355.936 271.181 C 355.712 270.993,355.223 270.154,353.303 266.667 C 352.619 265.425,351.683 263.785,351.221 263.021 C 350.760 262.257,350.221 261.319,350.024 260.938 C 349.826 260.556,349.270 259.618,348.789 258.854 C 348.307 258.090,347.683 256.972,347.402 256.369 C 347.122 255.766,346.475 254.944,345.965 254.543 L 345.037 253.813 293.482 253.823 C 256.651 253.830,241.797 253.724,241.470 253.453 C 240.851 252.939,241.027 230.805,241.656 230.047 C 242.078 229.539,290.904 229.209,292.781 229.703 C 293.598 229.917,294.296 230.892,296.873 235.417 C 297.689 236.849,298.756 238.451,299.243 238.976 L 300.130 239.931 318.207 239.925 C 337.277 239.920,337.392 239.910,336.826 238.422 C 336.417 237.346,333.311 231.855,332.965 231.597 C 332.837 231.502,332.615 231.033,332.471 230.556 C 332.327 230.078,332.018 229.453,331.784 229.167 C 331.549 228.880,330.860 227.786,330.251 226.736 C 329.642 225.686,328.998 224.592,328.820 224.306 C 328.642 224.019,327.983 222.872,327.356 221.757 C 326.729 220.642,325.874 219.158,325.458 218.459 C 325.041 217.759,324.456 216.719,324.157 216.146 C 323.857 215.573,323.301 214.635,322.919 214.063 C 322.538 213.490,321.912 212.396,321.528 211.632 C 321.144 210.868,320.518 209.774,320.136 209.201 C 319.755 208.628,319.198 207.691,318.898 207.118 C 318.166 205.719,317.155 203.922,316.221 202.356 C 315.798 201.647,314.922 200.163,314.276 199.058 C 313.630 197.953,312.926 196.934,312.713 196.794 C 312.089 196.382,208.956 196.490,208.247 196.903 M192.708 217.877 C 192.708 234.429,192.619 238.531,192.253 238.834 C 191.418 239.527,162.102 239.294,161.566 238.590 C 161.284 238.219,161.129 236.715,161.122 234.265 C 161.116 232.200,160.949 230.208,160.752 229.838 C 160.401 229.183,159.738 229.167,133.929 229.169 L 107.465 229.171 106.771 230.288 C 105.290 232.669,104.646 233.773,103.520 235.858 C 102.878 237.048,101.886 238.716,101.315 239.566 C 100.745 240.415,100.129 241.431,99.947 241.822 C 99.766 242.214,99.249 243.160,98.799 243.924 C 98.349 244.688,97.459 246.302,96.821 247.511 C 96.183 248.721,95.466 249.873,95.227 250.071 C 94.987 250.270,94.792 250.624,94.792 250.857 C 94.792 251.091,94.479 251.643,94.097 252.083 C 93.309 252.992,93.210 253.835,93.819 254.444 C 94.140 254.765,105.548 254.861,143.056 254.861 C 180.563 254.861,191.972 254.958,192.292 255.278 C 192.611 255.597,192.708 265.980,192.708 299.896 L 192.708 344.097 98.611 344.097 C 45.151 344.097,4.514 343.966,4.514 343.794 C 4.514 343.516,5.040 342.566,7.191 338.960 C 7.613 338.252,8.200 337.205,8.495 336.632 C 8.791 336.059,9.412 334.965,9.874 334.201 C 10.337 333.438,10.961 332.344,11.260 331.771 C 11.559 331.198,12.115 330.260,12.495 329.688 C 12.875 329.115,13.456 328.099,13.786 327.431 C 14.311 326.367,15.523 324.298,16.938 322.049 C 17.178 321.667,17.617 320.885,17.913 320.313 C 18.209 319.740,18.829 318.646,19.291 317.882 C 19.753 317.118,20.304 316.063,20.516 315.538 C 20.728 315.013,21.032 314.583,21.192 314.583 C 21.352 314.583,21.681 314.036,21.922 313.368 C 22.164 312.700,22.476 312.153,22.617 312.153 C 22.757 312.153,23.069 311.606,23.311 310.938 C 23.553 310.269,23.865 309.722,24.006 309.722 C 24.146 309.722,24.458 309.175,24.700 308.507 C 24.942 307.839,25.254 307.292,25.394 307.292 C 25.533 307.292,25.752 306.963,25.879 306.561 C 26.104 305.855,27.386 303.752,28.134 302.865 C 28.859 302.004,64.583 302.259,64.583 303.125 C 64.583 303.507,64.438 303.819,64.260 303.819 C 64.081 303.819,63.829 304.171,63.699 304.601 C 63.570 305.030,62.952 306.163,62.327 307.118 C 60.618 309.731,60.017 311.329,60.571 311.790 C 61.220 312.329,159.994 312.300,160.644 311.761 C 161.421 311.116,161.320 287.959,160.536 287.093 C 159.984 286.483,157.627 286.458,99.294 286.458 C 30.766 286.458,37.155 286.792,39.243 283.324 C 39.986 282.088,40.836 280.608,41.130 280.035 C 41.424 279.462,41.973 278.524,42.349 277.951 C 42.726 277.378,43.274 276.441,43.568 275.868 C 43.862 275.295,44.486 274.201,44.956 273.438 C 45.425 272.674,46.059 271.580,46.366 271.007 C 46.672 270.434,47.301 269.340,47.764 268.576 C 48.227 267.813,48.848 266.719,49.144 266.146 C 49.439 265.573,50.059 264.479,50.521 263.715 C 50.983 262.951,51.539 261.897,51.756 261.372 C 51.974 260.846,52.282 260.417,52.442 260.417 C 52.602 260.417,52.931 259.870,53.172 259.201 C 53.414 258.533,53.705 257.986,53.818 257.986 C 53.932 257.986,54.543 256.975,55.177 255.738 C 55.811 254.502,56.547 253.311,56.811 253.092 C 57.075 252.872,57.292 252.451,57.292 252.155 C 57.292 251.859,57.499 251.371,57.753 251.069 C 58.007 250.768,59.282 248.646,60.586 246.354 C 61.890 244.062,63.149 241.953,63.382 241.667 C 63.616 241.380,63.924 240.755,64.068 240.278 C 64.212 239.800,64.438 239.332,64.571 239.236 C 64.704 239.141,65.737 237.448,66.868 235.476 C 67.999 233.503,69.261 231.316,69.672 230.615 C 70.084 229.914,70.670 228.911,70.974 228.385 C 71.279 227.860,71.777 227.001,72.081 226.476 C 72.386 225.951,73.009 224.896,73.468 224.132 C 73.926 223.368,74.542 222.274,74.838 221.701 C 75.134 221.128,75.754 220.035,76.217 219.271 C 76.680 218.507,77.305 217.413,77.606 216.840 C 77.907 216.267,78.527 215.174,78.983 214.410 C 79.440 213.646,80.058 212.552,80.357 211.979 C 80.657 211.406,81.214 210.469,81.597 209.896 C 81.980 209.323,82.513 208.385,82.783 207.813 C 83.052 207.240,83.403 206.642,83.563 206.484 C 83.916 206.137,86.264 201.992,86.976 200.458 C 87.259 199.850,87.658 199.249,87.863 199.122 C 88.069 198.995,88.380 198.516,88.554 198.058 L 88.871 197.225 140.356 197.137 C 168.672 197.088,192.036 197.104,192.274 197.173 C 192.615 197.270,192.708 201.710,192.708 217.877 M290.330 197.220 L 312.431 197.222 313.233 198.524 C 313.674 199.240,314.238 200.217,314.486 200.694 C 314.734 201.172,315.318 202.187,315.785 202.951 C 316.252 203.715,316.746 204.575,316.883 204.861 C 317.257 205.643,319.187 208.961,319.879 210.013 C 320.214 210.522,320.739 211.484,321.047 212.153 C 321.354 212.821,321.709 213.446,321.834 213.542 C 321.960 213.637,322.262 214.106,322.506 214.583 C 322.751 215.061,323.332 216.076,323.799 216.840 C 324.266 217.604,324.894 218.698,325.195 219.271 C 325.496 219.844,326.118 220.937,326.578 221.701 C 327.038 222.465,327.574 223.403,327.769 223.785 C 327.964 224.167,328.554 225.208,329.079 226.100 C 336.003 237.845,336.132 238.083,335.897 238.695 C 335.727 239.139,333.310 239.211,318.110 239.226 L 300.521 239.243 299.566 238.358 C 299.041 237.870,298.611 237.295,298.611 237.079 C 298.611 236.863,298.394 236.440,298.130 236.138 C 297.865 235.837,297.158 234.662,296.558 233.528 C 295.958 232.393,295.073 230.948,294.591 230.316 L 293.715 229.167 267.583 229.167 C 247.222 229.167,241.323 229.263,240.867 229.601 C 239.868 230.341,239.690 252.725,240.672 253.974 L 241.370 254.861 293.104 254.861 C 326.816 254.861,345.063 254.982,345.484 255.207 C 346.035 255.502,347.805 258.301,349.620 261.747 C 349.888 262.257,350.230 262.755,350.379 262.854 C 350.529 262.954,350.825 263.422,351.038 263.896 C 351.251 264.369,351.801 265.382,352.261 266.146 C 352.721 266.910,353.337 268.003,353.630 268.576 C 353.923 269.149,354.559 270.243,355.045 271.007 C 355.530 271.771,356.162 272.865,356.450 273.438 C 356.737 274.010,357.349 275.104,357.809 275.868 C 358.269 276.632,358.793 277.576,358.974 277.966 C 359.155 278.355,359.553 278.882,359.860 279.137 C 360.166 279.391,360.417 279.744,360.417 279.922 C 360.417 280.100,361.354 281.869,362.500 283.854 C 363.646 285.839,364.583 287.609,364.583 287.786 C 364.583 287.964,364.827 288.311,365.124 288.558 C 365.422 288.805,365.885 289.488,366.154 290.077 C 366.858 291.618,368.788 295.062,370.171 297.247 C 370.827 298.284,371.530 299.444,371.733 299.826 C 371.936 300.208,373.027 302.138,374.158 304.115 C 375.290 306.091,376.744 308.669,377.391 309.844 C 378.037 311.018,379.080 312.760,379.708 313.715 C 380.336 314.670,381.268 316.233,381.778 317.188 C 382.907 319.299,383.532 320.388,386.553 325.519 C 387.847 327.715,389.060 329.864,389.249 330.294 C 389.439 330.724,389.865 331.492,390.196 332.001 C 390.527 332.509,391.312 333.837,391.939 334.952 C 392.566 336.067,393.234 337.214,393.422 337.500 C 393.610 337.786,393.993 338.518,394.273 339.126 C 394.552 339.733,394.924 340.318,395.098 340.426 C 395.477 340.660,396.875 343.283,396.875 343.761 C 396.875 343.977,363.285 344.097,302.778 344.097 L 208.681 344.097 208.681 323.681 C 208.681 308.264,208.783 303.162,209.097 302.847 C 209.706 302.239,239.429 302.248,239.806 302.857 C 239.950 303.091,240.077 305.038,240.087 307.185 C 240.100 310.235,240.222 311.204,240.644 311.627 C 241.308 312.290,340.024 312.449,340.820 311.788 C 341.278 311.408,340.475 308.681,339.905 308.681 C 339.758 308.681,339.457 308.134,339.236 307.465 C 339.016 306.797,338.722 306.250,338.584 306.250 C 338.447 306.250,338.136 305.703,337.895 305.035 C 337.653 304.366,337.324 303.819,337.164 303.819 C 337.004 303.819,336.696 303.390,336.479 302.865 C 336.261 302.339,335.706 301.285,335.244 300.521 C 334.781 299.757,334.157 298.663,333.856 298.090 C 333.555 297.517,332.927 296.424,332.460 295.660 C 331.993 294.896,331.500 294.036,331.363 293.750 C 331.227 293.464,330.522 292.292,329.797 291.146 C 329.072 290.000,328.477 288.881,328.476 288.659 C 328.474 288.438,327.991 287.852,327.404 287.357 L 326.336 286.458 267.925 286.458 C 222.957 286.458,209.418 286.362,209.097 286.042 C 208.554 285.498,208.485 197.345,209.028 197.164 C 209.219 197.101,222.617 197.087,238.802 197.133 C 254.987 197.180,278.175 197.219,290.330 197.220 " stroke="none" fill="#7c7c7c" fill-rule="evenodd"></path><path id="path3" d="M199.391 3.179 C 199.153 3.417,198.958 3.883,198.958 4.216 C 198.958 4.548,198.786 4.927,198.576 5.057 C 198.365 5.187,197.964 5.782,197.684 6.379 C 197.404 6.977,196.798 8.090,196.337 8.854 C 195.877 9.618,195.305 10.634,195.066 11.111 C 194.828 11.589,194.446 12.097,194.218 12.242 C 193.991 12.386,193.704 12.959,193.582 13.515 C 193.460 14.071,193.150 14.606,192.893 14.704 C 192.637 14.803,192.321 15.363,192.193 15.949 C 192.064 16.535,191.817 17.014,191.644 17.014 C 191.471 17.014,191.108 17.542,190.839 18.187 C 190.569 18.832,190.176 19.466,189.966 19.596 C 189.756 19.726,189.583 20.117,189.583 20.464 C 189.583 20.811,189.340 21.298,189.042 21.544 C 188.745 21.791,188.273 22.475,187.994 23.063 C 186.867 25.435,185.141 28.450,184.601 28.990 C 184.286 29.306,184.028 29.857,184.028 30.216 C 184.028 30.575,183.817 30.993,183.559 31.146 C 183.302 31.299,182.844 31.892,182.542 32.465 C 182.240 33.038,181.746 33.976,181.445 34.549 C 181.144 35.122,180.514 36.215,180.044 36.979 C 179.575 37.743,178.941 38.837,178.634 39.410 C 178.328 39.983,177.699 41.076,177.237 41.840 C 176.775 42.604,176.224 43.659,176.012 44.184 C 175.800 44.709,175.498 45.139,175.340 45.139 C 175.183 45.139,174.873 45.686,174.653 46.354 C 174.432 47.023,174.120 47.569,173.958 47.569 C 173.797 47.569,173.484 48.116,173.264 48.785 C 173.043 49.453,172.738 50.000,172.585 50.000 C 172.432 50.000,172.101 50.508,171.850 51.128 C 171.599 51.749,171.292 52.335,171.167 52.431 C 170.956 52.592,170.709 53.019,169.259 55.729 C 168.953 56.302,168.325 57.396,167.865 58.160 C 167.404 58.924,166.833 59.939,166.594 60.417 C 166.356 60.894,165.974 61.403,165.746 61.547 C 165.518 61.692,165.229 62.278,165.104 62.849 C 164.978 63.421,164.744 63.889,164.583 63.889 C 164.422 63.889,164.109 64.436,163.889 65.104 C 163.668 65.773,163.340 66.319,163.160 66.319 C 162.980 66.319,162.644 66.749,162.414 67.274 C 162.183 67.799,161.484 68.970,160.859 69.875 C 160.234 70.780,159.722 71.732,159.722 71.991 C 159.722 72.250,159.419 72.737,159.047 73.072 C 158.676 73.408,158.273 74.136,158.152 74.689 C 158.030 75.242,157.816 75.694,157.676 75.694 C 157.535 75.694,157.156 76.202,156.833 76.823 C 156.511 77.444,155.789 78.733,155.230 79.688 C 154.670 80.642,154.202 81.697,154.190 82.031 C 154.177 82.365,154.007 82.639,153.812 82.639 C 153.617 82.639,153.272 83.069,153.047 83.594 C 152.821 84.119,152.355 84.828,152.012 85.170 C 151.166 86.013,151.204 87.920,152.083 88.715 C 152.465 89.061,152.778 89.533,152.778 89.764 C 152.778 89.995,153.090 90.581,153.472 91.067 C 153.854 91.553,154.167 92.147,154.167 92.389 C 154.167 92.630,154.426 93.114,154.743 93.465 C 155.398 94.188,155.998 95.170,156.749 96.746 C 157.033 97.344,157.506 97.925,157.800 98.037 C 158.093 98.150,158.333 98.508,158.333 98.833 C 158.333 99.158,158.563 99.678,158.844 99.989 C 159.537 100.755,161.176 103.870,160.986 104.060 C 160.476 104.571,155.167 105.256,149.479 105.545 C 145.851 105.730,142.335 106.066,141.667 106.292 C 140.998 106.518,140.253 106.753,140.009 106.816 C 139.766 106.878,139.466 107.206,139.341 107.544 C 139.217 107.883,138.920 108.278,138.682 108.422 C 138.444 108.567,138.144 109.163,138.015 109.748 C 137.887 110.332,137.573 110.891,137.318 110.989 C 137.063 111.087,136.681 111.584,136.469 112.094 C 136.257 112.604,135.706 113.646,135.244 114.410 C 134.781 115.174,134.166 116.267,133.875 116.840 C 133.267 118.039,132.970 118.527,131.173 121.278 C 130.451 122.382,129.861 123.451,129.861 123.654 C 129.861 123.857,129.549 124.420,129.167 124.905 C 128.785 125.391,128.472 126.016,128.472 126.294 C 128.472 126.572,128.160 127.197,127.778 127.683 C 127.396 128.169,127.083 128.771,127.083 129.023 C 127.083 129.274,126.880 129.604,126.631 129.757 C 126.382 129.910,125.740 130.894,125.203 131.944 C 124.667 132.995,124.029 134.089,123.787 134.375 C 123.544 134.661,123.234 135.263,123.097 135.711 C 122.960 136.160,122.551 136.824,122.188 137.187 C 121.825 137.550,121.528 138.160,121.528 138.542 C 121.528 138.924,121.374 139.236,121.185 139.236 C 120.997 139.236,120.605 139.744,120.315 140.365 C 120.024 140.985,119.405 142.118,118.939 142.882 C 118.473 143.646,117.926 144.634,117.725 145.078 C 117.523 145.522,117.125 146.119,116.839 146.405 C 116.553 146.691,116.319 147.124,116.319 147.368 C 116.319 147.611,116.007 148.171,115.625 148.611 C 115.243 149.051,114.931 149.851,114.931 150.388 C 114.931 151.009,114.678 151.500,114.236 151.736 C 113.854 151.941,113.542 152.259,113.542 152.443 C 113.542 152.627,113.229 153.090,112.847 153.472 C 112.465 153.854,112.153 154.471,112.153 154.844 C 112.153 155.216,111.942 155.646,111.684 155.799 C 111.427 155.951,110.964 156.545,110.655 157.118 C 110.347 157.691,109.844 158.628,109.537 159.201 C 109.231 159.774,108.603 160.868,108.143 161.632 C 107.682 162.396,107.108 163.411,106.867 163.889 C 106.626 164.366,106.308 164.913,106.161 165.104 C 105.337 166.172,104.167 168.136,104.167 168.450 C 104.167 168.650,103.854 169.211,103.472 169.697 C 103.090 170.182,102.778 170.769,102.778 171.000 C 102.778 171.231,102.465 171.703,102.083 172.049 C 101.701 172.394,101.389 172.866,101.389 173.097 C 101.389 173.328,101.076 173.915,100.694 174.400 C 100.312 174.886,100.000 175.508,100.000 175.782 C 100.000 176.057,99.688 176.564,99.306 176.910 C 98.924 177.255,98.611 177.802,98.611 178.125 C 98.611 178.448,98.299 178.995,97.917 179.340 C 97.045 180.129,96.947 182.459,97.771 182.775 C 101.029 184.025,136.111 182.799,136.111 181.435 C 136.111 181.183,136.331 180.893,136.599 180.790 C 136.868 180.687,137.193 180.123,137.321 179.537 C 137.450 178.952,137.697 178.472,137.870 178.472 C 138.043 178.472,138.406 177.944,138.675 177.299 C 138.945 176.654,139.337 176.020,139.548 175.890 C 139.758 175.760,139.931 175.369,139.931 175.022 C 139.931 174.675,140.178 174.185,140.480 173.935 C 140.782 173.684,141.317 172.923,141.670 172.243 C 143.065 169.552,143.440 168.871,144.260 167.535 C 144.728 166.771,145.289 165.716,145.506 165.191 C 145.724 164.666,146.027 164.236,146.181 164.236 C 146.334 164.236,146.638 163.806,146.855 163.281 C 147.072 162.756,147.633 161.701,148.101 160.938 C 148.570 160.174,149.200 159.080,149.501 158.507 C 149.801 157.934,150.426 156.840,150.889 156.076 C 151.352 155.313,151.973 154.219,152.269 153.646 C 152.564 153.073,153.184 151.979,153.646 151.215 C 154.108 150.451,154.660 149.409,154.872 148.899 C 155.084 148.390,155.466 147.892,155.721 147.794 C 155.976 147.696,156.290 147.137,156.418 146.551 C 156.547 145.965,156.777 145.486,156.930 145.486 C 157.083 145.486,157.413 144.978,157.663 144.358 C 157.914 143.737,158.323 143.104,158.573 142.951 C 158.823 142.799,159.028 142.393,159.028 142.050 C 159.028 141.708,159.340 141.144,159.722 140.799 C 160.104 140.453,160.417 139.882,160.417 139.530 C 160.417 139.067,160.682 138.883,161.372 138.869 C 164.783 138.797,170.128 138.228,170.688 137.876 C 171.393 137.433,171.574 137.425,163.739 138.182 C 160.406 138.504,160.025 138.735,158.847 141.146 C 158.053 142.771,155.773 146.740,155.330 147.268 C 155.110 147.529,154.441 148.681,153.843 149.826 C 152.677 152.058,152.499 152.367,150.836 155.035 C 150.241 155.990,149.503 157.240,149.195 157.813 C 148.888 158.385,148.385 159.323,148.079 159.896 C 147.772 160.469,147.181 161.506,146.764 162.200 C 146.348 162.895,145.306 164.692,144.450 166.193 C 143.594 167.695,142.656 169.330,142.367 169.827 C 142.077 170.324,140.386 173.249,138.610 176.326 C 134.695 183.104,137.662 182.343,115.663 182.218 C 94.763 182.099,96.487 182.705,99.990 176.707 C 101.376 174.336,102.777 171.927,103.104 171.354 C 105.480 167.195,106.524 165.392,107.191 164.289 C 107.613 163.591,108.136 162.591,108.354 162.066 C 108.571 161.541,108.874 161.111,109.028 161.111 C 109.181 161.111,109.480 160.681,109.692 160.156 C 109.904 159.631,110.427 158.623,110.855 157.915 C 111.282 157.207,112.212 155.630,112.921 154.409 C 113.631 153.188,114.451 151.990,114.744 151.747 C 115.038 151.503,115.278 150.984,115.278 150.592 C 115.278 150.201,115.497 149.634,115.766 149.333 C 116.034 149.031,116.745 147.847,117.347 146.701 C 117.948 145.556,118.922 143.837,119.510 142.882 C 120.098 141.927,120.988 140.418,121.487 139.529 C 123.585 135.797,126.086 131.388,126.382 130.903 C 126.556 130.616,127.494 128.976,128.465 127.257 C 129.436 125.538,130.377 123.898,130.554 123.611 C 132.126 121.077,136.806 112.798,136.806 112.552 C 136.806 112.379,137.025 112.056,137.292 111.834 C 137.560 111.612,138.216 110.566,138.750 109.510 C 140.078 106.885,141.217 106.617,155.529 105.555 C 159.912 105.230,162.075 104.644,161.740 103.873 C 161.681 103.736,160.773 102.177,159.722 100.409 C 158.672 98.642,157.572 96.772,157.279 96.254 C 156.985 95.736,156.288 94.609,155.729 93.750 C 154.359 91.641,153.591 90.292,153.111 89.149 C 152.890 88.624,152.569 88.194,152.397 88.194 C 151.874 88.194,152.047 85.879,152.604 85.417 C 152.891 85.179,153.125 84.821,153.125 84.620 C 153.125 84.420,153.344 84.009,153.613 83.708 C 153.881 83.406,154.598 82.222,155.206 81.076 C 155.814 79.931,156.649 78.419,157.062 77.718 C 159.476 73.619,161.111 70.715,161.113 70.527 C 161.114 70.409,161.817 69.297,162.674 68.056 C 163.531 66.814,164.233 65.690,164.234 65.557 C 164.236 65.340,167.841 59.059,169.477 56.424 C 169.832 55.851,170.590 54.498,171.162 53.417 C 171.733 52.336,172.584 50.886,173.053 50.195 C 173.522 49.504,174.242 48.279,174.652 47.473 C 175.063 46.667,175.739 45.424,176.154 44.712 C 176.570 44.001,180.239 37.672,184.309 30.650 C 188.378 23.628,191.850 17.648,192.023 17.361 C 192.196 17.075,193.133 15.434,194.104 13.715 C 196.490 9.493,196.293 9.835,197.851 7.240 C 198.613 5.970,199.341 4.603,199.468 4.202 C 199.981 2.586,201.448 3.264,202.778 5.730 C 204.151 8.278,217.556 31.481,218.486 32.920 C 219.781 34.923,219.923 35.378,219.510 36.198 C 218.861 37.487,210.065 52.755,207.395 57.226 C 206.974 57.931,206.521 58.741,206.386 59.028 C 206.252 59.314,205.971 59.763,205.762 60.024 C 205.553 60.285,204.835 61.482,204.167 62.683 C 203.192 64.435,196.168 76.597,192.480 82.918 C 190.275 86.698,190.270 86.727,191.486 88.715 C 191.953 89.479,192.490 90.448,192.680 90.869 C 192.870 91.289,193.459 92.305,193.988 93.125 C 194.517 93.946,195.813 96.102,196.868 97.917 C 199.037 101.650,199.355 101.810,203.125 101.073 C 204.175 100.868,207.689 100.532,210.933 100.327 C 218.578 99.844,218.896 99.689,221.191 95.313 C 221.764 94.219,224.051 90.225,225.087 88.507 C 225.421 87.953,225.999 86.992,226.372 86.372 C 226.745 85.751,227.540 84.312,228.139 83.175 C 228.739 82.038,229.527 80.727,229.892 80.264 C 230.257 79.800,230.556 79.258,230.556 79.060 C 230.556 78.862,230.772 78.454,231.038 78.152 C 231.303 77.851,231.963 76.745,232.506 75.694 C 233.049 74.644,234.004 73.007,234.628 72.057 C 235.253 71.106,235.764 70.164,235.764 69.964 C 235.764 69.386,237.812 67.298,238.165 67.517 C 238.455 67.696,240.467 71.046,242.357 74.498 C 242.770 75.252,243.556 76.571,244.103 77.431 C 244.651 78.290,245.557 79.852,246.116 80.903 C 246.674 81.953,247.613 83.594,248.202 84.549 C 248.790 85.503,249.648 86.997,250.109 87.867 C 250.845 89.259,252.655 92.366,255.113 96.457 C 256.124 98.139,256.597 99.228,256.597 99.875 C 256.597 100.420,248.649 114.479,247.519 115.932 C 247.165 116.388,246.868 116.935,246.860 117.148 C 246.851 117.360,246.077 118.785,245.140 120.313 C 244.203 121.840,242.945 124.028,242.344 125.174 C 241.744 126.319,241.052 127.491,240.807 127.778 C 240.561 128.064,240.254 128.646,240.125 129.071 C 239.599 130.797,238.347 131.202,231.725 131.786 C 228.313 132.087,224.349 132.471,222.917 132.638 C 221.484 132.806,219.956 132.953,219.520 132.965 C 218.507 132.992,218.218 133.752,218.808 134.841 C 219.456 136.038,223.312 142.569,224.034 143.691 C 224.362 144.201,224.870 145.087,225.163 145.660 C 225.456 146.233,226.164 147.453,226.738 148.371 C 227.615 149.774,227.718 150.161,227.389 150.801 C 227.018 151.522,219.328 164.981,218.564 166.245 C 218.367 166.572,217.853 167.465,217.423 168.229 C 216.993 168.993,216.272 170.243,215.821 171.007 C 215.371 171.771,214.662 173.055,214.246 173.862 C 213.830 174.668,213.139 175.844,212.710 176.475 C 212.282 177.106,211.555 178.378,211.094 179.301 C 209.488 182.515,211.020 182.292,190.603 182.292 C 168.969 182.292,170.564 182.695,173.439 177.951 C 173.901 177.188,174.483 176.172,174.731 175.694 C 174.979 175.217,175.586 174.201,176.080 173.438 C 176.574 172.674,177.510 171.086,178.159 169.910 C 178.809 168.734,180.590 165.621,182.118 162.993 C 189.905 149.597,189.738 150.060,187.680 147.569 C 187.444 147.283,186.786 146.189,186.219 145.139 C 185.652 144.089,184.738 142.526,184.187 141.667 C 183.637 140.807,182.895 139.528,182.539 138.823 C 181.480 136.725,181.451 136.717,176.147 137.074 L 171.354 137.397 176.335 137.448 C 181.000 137.497,181.326 137.544,181.497 138.194 C 181.596 138.576,181.804 138.889,181.958 138.889 C 182.112 138.889,182.418 139.436,182.639 140.104 C 182.859 140.773,183.182 141.319,183.356 141.319 C 183.529 141.319,183.906 141.827,184.193 142.448 C 185.047 144.293,187.207 148.021,187.719 148.533 C 188.392 149.206,188.309 151.489,187.576 152.471 C 187.235 152.926,186.493 154.195,185.926 155.290 C 184.126 158.769,183.720 159.483,183.421 159.692 C 183.261 159.804,182.669 160.833,182.107 161.979 C 181.544 163.125,180.904 164.178,180.685 164.318 C 180.465 164.459,180.186 164.971,180.065 165.456 C 179.943 165.941,179.535 166.646,179.158 167.023 C 178.781 167.400,178.472 168.021,178.472 168.403 C 178.472 168.785,178.318 169.097,178.130 169.097 C 177.941 169.097,177.545 169.605,177.249 170.226 C 176.336 172.140,175.596 173.412,175.114 173.894 C 174.861 174.147,174.653 174.595,174.653 174.888 C 174.653 175.181,174.262 175.885,173.785 176.452 C 173.307 177.020,172.917 177.706,172.917 177.978 C 172.917 178.250,172.763 178.472,172.576 178.472 C 172.389 178.472,172.139 178.856,172.021 179.326 C 171.903 179.796,171.588 180.362,171.320 180.584 C 170.665 181.128,170.706 181.470,171.528 182.292 C 172.204 182.968,172.685 182.986,190.224 182.986 C 210.879 182.986,209.695 183.157,211.302 179.952 C 211.854 178.852,212.505 177.745,212.749 177.493 C 212.994 177.241,213.289 176.655,213.405 176.191 C 213.522 175.727,213.744 175.347,213.900 175.347 C 214.055 175.347,214.363 174.800,214.583 174.132 C 214.804 173.464,215.126 172.917,215.298 172.917 C 215.471 172.917,215.707 172.538,215.823 172.074 C 215.940 171.611,216.333 170.962,216.698 170.631 C 217.063 170.301,217.361 169.762,217.361 169.433 C 217.361 169.104,217.589 168.646,217.868 168.414 C 218.148 168.182,218.482 167.658,218.612 167.250 C 218.741 166.841,219.138 166.074,219.493 165.545 C 219.848 165.016,220.451 164.121,220.833 163.556 C 221.215 162.991,221.528 162.287,221.528 161.993 C 221.528 161.699,221.665 161.458,221.833 161.458 C 222.001 161.458,222.346 160.957,222.599 160.345 C 222.853 159.732,223.341 158.951,223.683 158.609 C 224.025 158.266,224.306 157.674,224.306 157.292 C 224.306 156.910,224.460 156.597,224.648 156.597 C 224.837 156.597,225.211 156.069,225.481 155.424 C 225.750 154.779,226.143 154.145,226.353 154.015 C 226.564 153.885,226.736 153.499,226.736 153.158 C 226.736 152.817,227.049 152.255,227.431 151.910 C 227.825 151.553,228.125 150.840,228.125 150.261 C 228.125 149.700,227.813 148.844,227.431 148.359 C 227.049 147.873,226.736 147.270,226.736 147.019 C 226.736 146.768,226.538 146.437,226.295 146.285 C 226.052 146.132,225.658 145.616,225.420 145.139 C 225.181 144.661,224.606 143.646,224.142 142.882 C 223.677 142.118,223.098 141.102,222.854 140.625 C 222.610 140.148,222.212 139.632,221.969 139.479 C 221.726 139.327,221.528 138.921,221.528 138.578 C 221.528 138.235,221.215 137.672,220.833 137.326 C 220.451 136.981,220.139 136.509,220.139 136.278 C 220.139 136.047,219.826 135.460,219.444 134.975 C 218.324 133.551,218.546 133.438,222.830 133.247 C 225.074 133.147,227.355 132.890,227.898 132.674 C 228.442 132.459,230.992 132.182,233.564 132.059 C 238.719 131.812,239.538 131.494,240.499 129.369 C 241.038 128.176,241.546 127.321,242.448 126.086 C 242.782 125.628,243.056 124.970,243.056 124.623 C 243.056 124.277,243.269 123.868,243.529 123.715 C 243.790 123.562,244.298 122.906,244.658 122.257 C 245.018 121.608,245.897 120.046,246.611 118.785 C 247.325 117.525,248.147 115.985,248.438 115.365 C 248.729 114.744,249.119 114.236,249.304 114.236 C 249.488 114.236,249.744 113.806,249.873 113.281 C 250.001 112.756,250.395 111.954,250.747 111.498 C 251.100 111.043,251.389 110.457,251.389 110.196 C 251.389 109.936,251.535 109.722,251.714 109.722 C 251.892 109.722,252.236 109.175,252.478 108.507 C 252.720 107.839,253.032 107.292,253.172 107.292 C 253.313 107.292,253.625 106.745,253.867 106.076 C 254.108 105.408,254.429 104.861,254.579 104.861 C 254.729 104.861,255.094 104.353,255.390 103.733 C 255.686 103.112,256.176 102.152,256.480 101.598 C 257.175 100.331,257.178 99.334,256.491 98.054 C 256.194 97.501,255.700 96.580,255.394 96.007 C 255.087 95.434,254.458 94.340,253.995 93.576 C 253.532 92.813,252.907 91.719,252.606 91.146 C 252.305 90.573,251.680 89.479,251.217 88.715 C 250.754 87.951,250.143 86.819,249.858 86.198 C 249.574 85.577,249.177 85.069,248.976 85.069 C 248.775 85.069,248.611 84.755,248.611 84.372 C 248.611 83.988,248.299 83.406,247.917 83.079 C 247.535 82.752,247.222 82.270,247.222 82.008 C 247.222 81.745,246.949 81.115,246.615 80.608 C 245.499 78.912,245.137 78.305,244.722 77.431 C 244.495 76.953,244.098 76.307,243.838 75.994 C 243.352 75.408,241.395 71.873,240.454 69.878 C 240.161 69.258,239.767 68.750,239.579 68.750 C 239.390 68.750,239.236 68.540,239.236 68.283 C 239.236 66.081,236.768 66.742,235.548 69.271 C 235.271 69.844,234.666 70.938,234.203 71.701 C 233.740 72.465,233.115 73.559,232.814 74.132 C 231.554 76.529,231.107 77.276,230.670 77.713 C 230.416 77.967,230.208 78.374,230.208 78.617 C 230.208 78.860,229.905 79.334,229.534 79.670 C 229.162 80.006,228.759 80.733,228.638 81.286 C 228.516 81.839,228.288 82.292,228.131 82.292 C 227.974 82.292,227.665 82.721,227.445 83.247 C 226.955 84.411,226.068 85.993,225.257 87.143 C 224.925 87.615,224.653 88.279,224.653 88.619 C 224.653 88.958,224.498 89.236,224.308 89.236 C 223.983 89.236,223.114 90.671,222.154 92.795 C 221.917 93.320,221.613 93.750,221.479 93.750 C 221.344 93.750,221.054 94.297,220.833 94.965 C 220.613 95.634,220.290 96.181,220.117 96.181 C 219.943 96.181,219.575 96.722,219.298 97.383 C 218.942 98.236,218.511 98.647,217.818 98.795 C 217.280 98.909,215.903 99.221,214.757 99.486 C 213.611 99.752,210.228 100.041,207.239 100.128 C 204.007 100.222,201.492 100.453,201.033 100.699 C 200.094 101.202,198.743 100.616,198.408 99.561 C 198.201 98.907,196.902 96.788,196.185 95.935 C 195.992 95.704,195.833 95.294,195.833 95.022 C 195.833 94.751,195.575 94.315,195.259 94.053 C 194.943 93.791,194.463 93.108,194.193 92.535 C 193.923 91.962,193.326 90.868,192.866 90.104 C 190.874 86.794,190.875 86.483,192.893 83.160 C 193.357 82.396,193.933 81.380,194.173 80.903 C 194.413 80.425,194.807 79.828,195.048 79.576 C 195.288 79.324,195.580 78.738,195.697 78.274 C 195.813 77.810,196.038 77.431,196.196 77.431 C 196.354 77.431,196.681 76.884,196.922 76.215 C 197.164 75.547,197.484 75.000,197.635 75.000 C 197.785 75.000,198.141 74.492,198.426 73.872 C 198.960 72.709,199.348 72.036,200.420 70.413 C 200.762 69.896,201.042 69.227,201.042 68.927 C 201.042 68.627,201.268 68.294,201.546 68.188 C 201.823 68.081,202.226 67.461,202.441 66.810 C 202.656 66.158,202.960 65.625,203.118 65.625 C 203.275 65.625,203.582 65.195,203.799 64.670 C 204.016 64.145,204.577 63.090,205.046 62.326 C 205.514 61.563,206.144 60.469,206.445 59.896 C 206.746 59.323,207.369 58.229,207.829 57.465 C 208.290 56.701,208.862 55.686,209.101 55.208 C 209.339 54.731,209.636 54.262,209.761 54.167 C 209.964 54.011,210.324 53.357,211.867 50.347 C 212.112 49.870,212.510 49.354,212.753 49.201 C 212.996 49.049,213.194 48.718,213.194 48.467 C 213.194 48.216,213.507 47.613,213.889 47.127 C 214.271 46.642,214.583 46.020,214.583 45.746 C 214.583 45.471,214.896 44.964,215.278 44.618 C 215.660 44.272,215.972 43.696,215.972 43.338 C 215.972 42.980,216.202 42.598,216.483 42.491 C 216.763 42.383,217.185 41.763,217.420 41.113 C 217.655 40.463,217.962 39.931,218.102 39.931 C 218.242 39.931,218.466 39.579,218.601 39.149 C 218.735 38.720,219.137 37.995,219.492 37.540 C 220.356 36.433,220.333 34.358,219.444 33.333 C 219.062 32.893,218.750 32.357,218.750 32.142 C 218.750 31.927,218.438 31.484,218.056 31.157 C 217.674 30.830,217.361 30.338,217.361 30.063 C 217.361 29.788,217.153 29.356,216.899 29.102 C 216.380 28.583,215.600 27.195,214.740 25.260 C 214.421 24.544,214.034 23.958,213.879 23.958 C 213.724 23.958,213.494 23.491,213.369 22.919 C 213.243 22.347,212.942 21.761,212.699 21.617 C 212.262 21.357,211.640 20.329,210.598 18.142 C 210.302 17.522,209.918 17.014,209.745 17.014 C 209.572 17.014,209.327 16.546,209.202 15.974 C 209.076 15.403,208.781 14.817,208.546 14.672 C 208.311 14.528,207.914 13.902,207.663 13.281 C 207.413 12.661,207.070 12.153,206.902 12.153 C 206.735 12.153,206.597 11.849,206.597 11.479 C 206.597 11.108,206.439 10.707,206.245 10.587 C 206.051 10.467,205.577 9.794,205.190 9.091 C 204.804 8.388,204.111 7.187,203.649 6.424 C 203.188 5.660,202.714 4.800,202.596 4.514 C 202.058 3.212,201.775 2.945,200.831 2.849 C 200.277 2.793,199.628 2.941,199.391 3.179 M263.470 116.824 C 262.360 118.705,262.131 119.102,260.463 122.049 C 260.030 122.812,259.299 124.063,258.838 124.826 C 258.377 125.590,257.809 126.606,257.576 127.083 C 257.343 127.561,256.655 128.733,256.048 129.688 C 255.440 130.642,253.045 134.783,250.725 138.889 C 248.405 142.995,246.359 146.589,246.178 146.875 C 245.464 148.004,243.177 151.913,242.244 153.600 C 241.702 154.580,241.007 155.773,240.700 156.250 C 240.392 156.727,239.685 157.977,239.128 159.028 C 238.571 160.078,237.899 161.184,237.634 161.486 C 237.369 161.787,237.153 162.141,237.153 162.272 C 237.153 162.497,235.585 165.280,234.317 167.305 C 233.999 167.813,233.218 169.219,232.582 170.428 C 231.946 171.637,231.230 172.789,230.991 172.988 C 230.751 173.186,230.556 173.543,230.556 173.780 C 230.556 174.018,230.257 174.591,229.892 175.055 C 229.527 175.519,228.741 176.829,228.144 177.967 C 227.548 179.104,226.870 180.317,226.638 180.663 C 225.537 182.299,225.359 182.289,258.313 182.325 C 275.225 182.343,292.254 182.382,296.156 182.411 C 304.352 182.474,305.119 182.240,303.533 180.168 C 303.184 179.713,302.418 178.481,301.830 177.431 C 299.786 173.777,294.660 164.817,294.084 163.889 C 293.906 163.602,293.220 162.251,292.560 160.886 C 291.900 159.521,291.234 158.350,291.079 158.282 C 290.658 158.099,289.495 156.313,288.398 154.167 C 287.862 153.116,287.236 152.023,287.007 151.736 C 286.779 151.450,286.405 150.825,286.176 150.347 C 285.947 149.870,285.366 148.854,284.886 148.090 C 284.405 147.326,283.822 146.311,283.590 145.833 C 283.358 145.356,282.971 144.759,282.730 144.506 C 282.489 144.254,282.292 143.860,282.292 143.630 C 282.292 143.401,281.727 142.358,281.037 141.312 C 280.347 140.266,279.635 139.097,279.456 138.715 C 279.277 138.333,278.787 137.446,278.368 136.743 C 277.948 136.041,276.387 133.351,274.899 130.765 C 273.411 128.180,272.047 125.974,271.867 125.863 C 271.608 125.703,274.084 130.312,275.693 132.986 C 275.866 133.273,278.052 137.023,280.552 141.319 C 283.051 145.616,285.238 149.366,285.411 149.653 C 285.583 149.939,286.834 152.127,288.189 154.514 C 289.545 156.901,290.799 159.089,290.975 159.375 C 291.424 160.103,294.727 165.951,296.141 168.522 C 296.787 169.698,297.842 171.457,298.485 172.432 C 299.127 173.406,299.653 174.346,299.653 174.520 C 299.653 174.693,300.203 175.653,300.876 176.652 C 301.549 177.651,302.251 178.820,302.438 179.251 C 302.624 179.682,302.966 180.301,303.199 180.626 C 303.431 180.951,303.497 181.341,303.344 181.494 C 302.924 181.914,227.534 181.845,227.144 181.424 C 226.941 181.204,227.696 179.604,229.192 177.083 C 230.495 174.887,231.674 172.856,231.812 172.569 C 232.056 172.063,241.430 155.743,242.945 153.187 C 243.361 152.485,243.947 151.441,244.246 150.868 C 244.545 150.295,245.102 149.358,245.484 148.785 C 245.865 148.212,246.491 147.118,246.875 146.354 C 247.259 145.590,247.885 144.497,248.266 143.924 C 248.648 143.351,249.205 142.413,249.504 141.840 C 249.803 141.267,250.426 140.174,250.889 139.410 C 251.352 138.646,251.973 137.552,252.269 136.979 C 252.564 136.406,253.151 135.356,253.573 134.644 C 253.995 133.933,256.438 129.715,259.001 125.269 C 264.765 115.274,264.860 115.134,265.468 115.639 C 265.860 115.964,267.928 119.272,268.355 120.256 C 268.812 121.312,271.528 125.403,271.528 125.037 C 271.528 124.789,270.969 123.702,270.286 122.623 C 269.603 121.543,268.314 119.411,267.421 117.885 C 265.397 114.424,264.957 114.306,263.470 116.824 M88.281 196.411 C 88.043 196.507,87.847 196.812,87.847 197.088 C 87.847 197.365,87.618 197.679,87.337 197.787 C 87.056 197.895,86.634 198.515,86.399 199.165 C 86.164 199.815,85.862 200.347,85.728 200.347 C 85.594 200.347,85.304 200.777,85.084 201.302 C 84.594 202.467,83.707 204.048,82.896 205.199 C 82.564 205.671,82.292 206.257,82.292 206.501 C 82.292 206.745,81.979 207.257,81.597 207.639 C 81.215 208.021,80.903 208.646,80.903 209.028 C 80.903 209.410,80.748 209.722,80.558 209.722 C 80.222 209.722,79.245 211.373,78.453 213.281 C 78.235 213.806,77.926 214.236,77.766 214.236 C 77.606 214.236,77.278 214.783,77.036 215.451 C 76.794 216.120,76.485 216.667,76.348 216.667 C 76.211 216.667,75.599 217.643,74.988 218.837 C 73.150 222.425,72.660 223.283,72.081 223.923 C 71.777 224.259,71.528 224.834,71.529 225.201 C 71.530 225.694,71.730 225.552,72.298 224.653 C 73.471 222.794,73.830 222.172,74.647 220.583 C 75.061 219.776,75.741 218.605,76.158 217.979 C 76.575 217.353,77.113 216.450,77.354 215.972 C 77.595 215.495,78.168 214.479,78.629 213.715 C 79.089 212.951,79.711 211.858,80.010 211.285 C 80.309 210.712,80.867 209.774,81.250 209.201 C 81.633 208.628,82.193 207.691,82.496 207.118 C 83.632 204.967,84.294 203.814,84.636 203.390 C 84.830 203.149,85.428 202.092,85.966 201.042 C 87.039 198.947,88.175 197.190,88.715 196.794 C 89.375 196.309,192.505 196.476,193.171 196.963 C 194.022 197.586,193.910 239.051,193.056 239.591 C 192.211 240.125,161.219 240.034,160.871 239.497 C 160.717 239.258,160.512 237.064,160.417 234.622 C 160.283 231.192,160.125 230.108,159.722 229.853 C 159.173 229.506,109.761 229.371,108.507 229.713 C 108.125 229.817,107.344 230.680,106.771 231.631 C 106.198 232.582,105.221 234.149,104.601 235.113 C 103.980 236.077,103.472 236.953,103.472 237.059 C 103.472 237.221,100.696 242.062,97.680 247.158 C 97.264 247.862,96.673 248.906,96.369 249.479 C 95.504 251.104,94.978 251.961,94.463 252.582 C 93.444 253.809,94.215 253.829,143.352 253.822 L 192.041 253.815 192.896 254.670 L 193.750 255.524 193.750 299.612 C 193.750 339.229,193.695 343.756,193.204 344.246 C 192.462 344.989,4.502 345.094,3.887 344.352 C 3.617 344.027,4.419 342.372,6.958 338.015 C 8.848 334.772,10.558 331.751,10.758 331.302 C 10.957 330.853,11.636 329.681,12.266 328.697 C 12.896 327.714,13.856 326.050,14.399 325.000 C 14.943 323.950,15.872 322.309,16.465 321.354 C 18.233 318.506,18.370 318.273,18.916 317.188 C 19.204 316.615,19.834 315.521,20.316 314.757 C 20.798 313.993,21.357 312.978,21.558 312.501 C 21.759 312.024,22.131 311.399,22.385 311.112 C 22.639 310.825,23.427 309.497,24.137 308.160 C 25.960 304.727,27.699 302.150,28.471 301.737 C 28.903 301.506,35.392 301.414,47.118 301.473 L 65.104 301.563 65.217 302.548 C 65.279 303.090,65.099 303.793,64.818 304.111 C 64.536 304.428,64.056 305.234,63.751 305.903 C 63.446 306.571,62.883 307.587,62.500 308.160 C 61.235 310.055,60.783 311.255,61.228 311.538 C 62.316 312.230,159.684 311.832,160.057 311.134 C 160.598 310.124,160.544 288.461,160.000 287.917 C 159.679 287.596,145.676 287.500,99.085 287.500 C 37.314 287.500,36.474 287.482,36.964 286.193 C 37.149 285.705,40.378 279.946,41.842 277.494 C 42.366 276.616,45.149 271.729,46.528 269.267 C 47.196 268.073,47.929 266.878,48.157 266.610 C 48.385 266.342,48.740 265.738,48.946 265.266 C 49.153 264.795,49.702 263.785,50.165 263.021 C 50.629 262.257,51.118 261.398,51.251 261.111 C 51.385 260.825,51.687 260.356,51.921 260.069 C 52.156 259.783,52.875 258.568,53.518 257.369 C 54.161 256.171,55.000 254.658,55.382 254.009 C 57.036 251.197,59.622 246.659,59.843 246.181 C 59.975 245.894,60.432 245.082,60.858 244.377 C 64.542 238.273,71.418 226.042,71.165 226.042 C 70.990 226.042,70.530 226.628,70.142 227.344 C 69.438 228.645,69.058 229.326,68.400 230.469 C 68.208 230.803,67.860 231.467,67.626 231.944 C 67.393 232.422,67.016 232.931,66.788 233.075 C 66.560 233.219,66.271 233.805,66.145 234.377 C 66.020 234.949,65.786 235.417,65.626 235.417 C 65.466 235.417,64.842 236.431,64.238 237.670 C 63.634 238.909,62.994 240.014,62.815 240.124 C 62.636 240.235,62.256 240.822,61.971 241.430 C 61.686 242.038,61.071 243.160,60.604 243.924 C 60.137 244.688,59.643 245.547,59.506 245.833 C 59.369 246.120,58.971 246.727,58.621 247.182 C 58.272 247.638,57.986 248.267,57.986 248.581 C 57.986 248.895,57.674 249.419,57.292 249.746 C 56.910 250.073,56.597 250.647,56.597 251.021 C 56.597 251.395,56.386 251.827,56.129 251.979 C 55.871 252.132,55.408 252.726,55.100 253.299 C 54.791 253.872,54.288 254.809,53.982 255.382 C 53.675 255.955,53.046 257.049,52.583 257.813 C 52.120 258.576,51.499 259.670,51.204 260.243 C 50.908 260.816,50.288 261.910,49.826 262.674 C 49.364 263.438,48.808 264.492,48.591 265.017 C 48.374 265.543,48.065 265.972,47.905 265.972 C 47.745 265.972,47.417 266.519,47.175 267.188 C 46.933 267.856,46.621 268.403,46.480 268.403 C 46.340 268.403,46.028 268.950,45.786 269.618 C 45.544 270.286,45.224 270.833,45.074 270.833 C 44.924 270.833,44.568 271.341,44.282 271.962 C 43.997 272.582,43.605 273.364,43.410 273.698 C 43.215 274.032,42.896 274.579,42.701 274.913 C 42.507 275.247,42.118 276.018,41.839 276.626 C 41.559 277.233,41.192 277.816,41.023 277.920 C 40.854 278.025,40.266 279.012,39.716 280.114 C 39.167 281.216,38.532 282.314,38.305 282.554 C 38.078 282.794,37.782 283.340,37.646 283.768 C 37.510 284.196,37.175 284.710,36.901 284.910 C 36.589 285.138,36.446 285.721,36.518 286.474 L 36.632 287.674 98.090 287.847 L 159.549 288.021 159.640 299.740 L 159.731 311.458 110.595 311.458 C 59.828 311.458,59.839 311.459,61.841 310.221 C 62.051 310.091,62.453 309.496,62.733 308.899 C 63.013 308.301,63.620 307.188,64.081 306.424 C 65.043 304.832,66.319 302.162,66.319 301.741 C 66.319 300.846,63.469 300.694,46.672 300.694 C 27.995 300.694,27.620 300.728,26.976 302.434 C 26.760 303.005,26.454 303.472,26.295 303.472 C 26.136 303.472,25.773 303.980,25.489 304.601 C 25.205 305.221,24.598 306.354,24.142 307.118 C 23.685 307.882,23.065 308.976,22.764 309.549 C 22.463 310.122,21.833 311.215,21.364 311.979 C 20.895 312.743,20.266 313.837,19.966 314.410 C 19.667 314.983,19.114 315.920,18.738 316.493 C 18.362 317.066,17.802 318.082,17.495 318.750 C 17.187 319.418,16.819 320.043,16.676 320.139 C 16.533 320.234,16.121 320.844,15.760 321.493 C 15.399 322.142,14.520 323.704,13.806 324.965 C 13.092 326.225,12.270 327.765,11.979 328.385 C 11.687 329.006,11.312 329.514,11.144 329.514 C 10.976 329.514,10.734 329.931,10.606 330.441 C 10.478 330.951,10.071 331.754,9.701 332.224 C 9.331 332.695,9.028 333.293,9.028 333.554 C 9.028 333.814,8.882 334.028,8.703 334.028 C 8.524 334.028,8.181 334.575,7.939 335.243 C 7.697 335.911,7.393 336.458,7.264 336.458 C 7.135 336.458,6.824 336.966,6.573 337.587 C 6.322 338.207,5.925 338.833,5.690 338.978 C 5.455 339.122,5.160 339.708,5.034 340.280 C 4.909 340.852,4.678 341.319,4.523 341.319 C 3.971 341.319,2.879 344.018,3.200 344.590 C 3.614 345.331,193.069 345.445,193.671 344.705 C 194.289 343.944,194.374 255.143,193.757 254.167 C 193.468 253.709,187.472 253.625,144.370 253.472 L 95.313 253.299 95.406 252.431 C 95.457 251.953,95.708 251.406,95.963 251.214 C 96.218 251.022,96.546 250.475,96.692 249.999 C 96.838 249.522,97.157 248.898,97.402 248.611 C 97.925 247.999,99.785 244.749,100.519 243.166 C 100.801 242.559,101.192 241.962,101.389 241.840 C 101.586 241.719,101.975 241.122,102.255 240.514 C 102.535 239.907,102.948 239.097,103.173 238.715 C 103.904 237.473,104.165 236.993,104.587 236.111 C 104.816 235.634,105.284 234.964,105.627 234.622 C 105.969 234.280,106.250 233.689,106.250 233.309 C 106.250 232.928,106.470 232.533,106.739 232.429 C 107.009 232.326,107.319 231.882,107.429 231.443 C 107.736 230.220,107.932 230.212,134.655 230.300 L 159.549 230.382 159.722 234.967 C 159.839 238.063,160.042 239.698,160.347 240.001 C 161.031 240.683,192.701 240.657,193.523 239.975 C 194.267 239.358,194.419 197.336,193.681 196.597 C 193.262 196.179,89.312 195.995,88.281 196.411 M207.687 196.644 C 206.917 197.571,207.058 286.818,207.830 287.382 C 208.356 287.767,218.675 287.847,267.367 287.847 L 326.268 287.847 326.954 288.628 C 327.331 289.058,328.080 290.308,328.618 291.406 C 329.156 292.504,329.722 293.403,329.875 293.403 C 330.028 293.403,330.253 293.855,330.374 294.408 C 330.496 294.962,330.899 295.689,331.270 296.025 C 331.641 296.361,331.944 296.824,331.944 297.056 C 331.944 297.287,332.257 297.873,332.639 298.359 C 333.021 298.844,333.333 299.414,333.333 299.624 C 333.333 299.835,333.845 300.748,334.470 301.653 C 335.095 302.558,335.801 303.689,336.039 304.167 C 336.277 304.644,336.847 305.660,337.304 306.424 C 338.326 308.129,339.931 311.116,339.931 311.313 C 339.931 311.393,317.821 311.458,290.799 311.458 L 241.667 311.458 241.667 306.983 C 241.667 303.094,241.580 302.400,241.003 301.688 L 240.339 300.868 224.389 300.868 C 211.381 300.868,208.334 300.956,207.866 301.345 C 207.093 301.986,206.972 344.094,207.741 344.732 C 208.611 345.454,397.559 345.403,398.088 344.680 C 398.544 344.056,397.527 341.319,396.839 341.319 C 396.668 341.319,396.528 341.007,396.528 340.625 C 396.528 340.243,396.219 339.622,395.842 339.245 C 395.465 338.868,395.057 338.163,394.935 337.678 C 394.814 337.193,394.535 336.681,394.315 336.541 C 394.096 336.400,393.468 335.383,392.920 334.281 C 392.372 333.179,391.785 332.191,391.616 332.087 C 391.447 331.982,391.080 331.400,390.800 330.792 C 390.521 330.185,390.149 329.453,389.975 329.167 C 389.800 328.880,389.486 328.255,389.276 327.778 C 388.896 326.915,388.677 326.502,387.895 325.174 C 387.670 324.792,387.253 323.971,386.968 323.351 C 386.682 322.730,386.307 322.222,386.134 322.222 C 385.961 322.222,385.716 321.754,385.591 321.183 C 385.465 320.611,385.176 320.025,384.948 319.881 C 384.720 319.736,384.339 319.227,384.100 318.750 C 383.862 318.273,383.287 317.257,382.822 316.493 C 382.358 315.729,381.778 314.714,381.534 314.236 C 381.290 313.759,380.963 313.276,380.807 313.164 C 380.519 312.957,380.242 312.478,378.197 308.655 C 377.568 307.480,376.826 306.290,376.548 306.012 C 376.269 305.734,376.042 305.294,376.042 305.035 C 376.042 304.776,375.819 304.341,375.547 304.068 C 375.274 303.796,374.806 303.043,374.506 302.394 C 374.205 301.746,373.644 300.747,373.259 300.174 C 372.874 299.601,372.303 298.546,371.990 297.830 C 371.678 297.114,371.290 296.528,371.128 296.528 C 370.966 296.528,370.833 296.305,370.833 296.034 C 370.833 295.762,370.443 295.075,369.965 294.508 C 369.488 293.940,369.097 293.297,369.097 293.078 C 369.097 292.859,368.818 292.257,368.476 291.739 C 367.404 290.117,367.016 289.444,366.481 288.281 C 366.196 287.661,365.809 287.153,365.620 287.153 C 365.432 287.153,365.278 286.864,365.278 286.512 C 365.278 286.160,364.965 285.589,364.583 285.243 C 364.201 284.897,363.885 284.365,363.881 284.061 C 363.877 283.756,363.568 283.116,363.194 282.639 C 362.821 282.161,362.512 281.600,362.508 281.391 C 362.503 281.182,362.187 280.728,361.806 280.382 C 361.424 280.036,361.111 279.564,361.111 279.333 C 361.111 279.102,360.799 278.516,360.417 278.030 C 360.035 277.545,359.722 276.918,359.722 276.637 C 359.722 276.356,359.494 275.937,359.215 275.706 C 358.936 275.474,358.220 274.283,357.624 273.059 C 357.027 271.835,356.409 270.833,356.249 270.833 C 356.089 270.833,355.853 270.354,355.724 269.768 C 355.595 269.182,355.281 268.623,355.026 268.525 C 354.771 268.427,354.393 267.930,354.187 267.420 C 353.980 266.910,353.433 265.868,352.971 265.104 C 352.509 264.340,351.885 263.247,351.584 262.674 C 351.283 262.101,350.658 261.007,350.195 260.243 C 349.732 259.479,349.103 258.385,348.796 257.813 C 348.490 257.240,347.985 256.302,347.674 255.729 C 346.456 253.484,350.727 253.663,293.750 253.472 L 241.840 253.299 241.783 242.334 C 241.751 236.303,241.863 231.147,242.031 230.876 C 242.289 230.457,246.149 230.375,267.435 230.334 C 293.726 230.285,294.097 230.304,294.097 231.742 C 294.097 232.003,294.317 232.302,294.585 232.405 C 294.854 232.508,295.176 233.058,295.301 233.628 C 295.426 234.198,295.753 234.750,296.028 234.856 C 296.303 234.961,296.528 235.341,296.528 235.699 C 296.528 236.058,296.840 236.634,297.222 236.979 C 297.604 237.325,297.917 237.793,297.917 238.021 C 297.917 238.248,298.307 238.888,298.783 239.443 L 299.650 240.451 316.752 240.558 C 339.403 240.698,338.785 240.798,336.938 237.295 C 336.388 236.252,335.663 234.855,335.327 234.192 C 334.991 233.529,334.562 232.986,334.372 232.986 C 334.183 232.986,334.028 232.693,334.028 232.334 C 334.028 231.976,333.800 231.493,333.521 231.261 C 333.242 231.030,332.533 229.853,331.944 228.646 C 331.356 227.439,330.647 226.262,330.368 226.030 C 330.089 225.799,329.861 225.340,329.861 225.011 C 329.861 224.682,329.549 224.130,329.167 223.785 C 328.785 223.439,328.472 222.932,328.472 222.657 C 328.472 222.383,328.160 221.761,327.778 221.275 C 327.396 220.790,327.083 220.187,327.083 219.936 C 327.083 219.684,326.885 219.354,326.642 219.201 C 326.399 219.049,326.000 218.533,325.756 218.056 C 324.213 215.046,323.852 214.391,323.650 214.236 C 323.525 214.141,323.223 213.672,322.978 213.194 C 322.411 212.088,321.387 210.279,320.325 208.507 C 319.867 207.743,319.246 206.649,318.945 206.076 C 318.644 205.503,318.014 204.410,317.546 203.646 C 317.077 202.882,316.516 201.827,316.299 201.302 C 316.082 200.777,315.774 200.347,315.614 200.347 C 315.455 200.347,315.214 199.999,315.079 199.573 C 314.811 198.730,313.577 196.855,313.021 196.446 C 312.326 195.936,208.112 196.132,207.687 196.644 M312.713 196.794 C 312.926 196.934,313.630 197.953,314.276 199.058 C 314.922 200.163,315.798 201.647,316.221 202.356 C 317.155 203.922,318.166 205.719,318.898 207.118 C 319.198 207.691,319.755 208.628,320.136 209.201 C 320.518 209.774,321.144 210.868,321.528 211.632 C 321.912 212.396,322.538 213.490,322.919 214.063 C 323.301 214.635,323.857 215.573,324.157 216.146 C 324.456 216.719,325.041 217.759,325.458 218.459 C 325.874 219.158,326.729 220.642,327.356 221.757 C 327.983 222.872,328.642 224.019,328.820 224.306 C 328.998 224.592,329.642 225.686,330.251 226.736 C 330.860 227.786,331.549 228.880,331.784 229.167 C 332.018 229.453,332.327 230.078,332.471 230.556 C 332.615 231.033,332.837 231.502,332.965 231.597 C 333.311 231.855,336.417 237.346,336.826 238.422 C 337.392 239.910,337.277 239.920,318.207 239.925 L 300.130 239.931 299.243 238.976 C 298.756 238.451,297.689 236.849,296.873 235.417 C 294.296 230.892,293.598 229.917,292.781 229.703 C 290.904 229.209,242.078 229.539,241.656 230.047 C 241.027 230.805,240.851 252.939,241.470 253.453 C 241.797 253.724,256.651 253.830,293.482 253.823 L 345.037 253.813 345.965 254.543 C 346.475 254.944,347.122 255.766,347.402 256.369 C 347.683 256.972,348.307 258.090,348.789 258.854 C 349.270 259.618,349.826 260.556,350.024 260.938 C 350.221 261.319,350.760 262.257,351.221 263.021 C 351.683 263.785,352.619 265.425,353.303 266.667 C 355.223 270.154,355.712 270.993,355.936 271.181 C 356.050 271.276,356.753 272.468,357.499 273.829 C 358.244 275.189,361.589 281.030,364.931 286.808 C 368.273 292.585,371.450 298.112,371.992 299.090 C 372.534 300.068,373.233 301.259,373.546 301.736 C 373.859 302.214,374.487 303.307,374.940 304.167 C 375.394 305.026,376.105 306.276,376.520 306.944 C 377.995 309.321,378.131 309.558,378.485 310.384 C 378.682 310.844,379.273 311.859,379.798 312.641 C 381.106 314.590,387.070 324.871,389.988 330.208 C 390.562 331.259,392.097 333.915,393.399 336.111 C 396.795 341.838,397.689 343.633,397.452 344.249 C 397.196 344.917,209.556 345.099,208.311 344.432 C 207.240 343.860,207.262 303.154,208.333 302.083 C 209.007 301.410,209.491 301.389,224.365 301.389 C 242.729 301.389,240.972 300.848,240.972 306.500 C 240.972 308.679,241.134 310.765,241.332 311.134 C 241.797 312.004,339.795 312.215,340.128 311.347 C 340.294 310.914,338.884 307.876,337.575 305.847 C 337.247 305.338,336.466 304.010,335.839 302.895 C 335.211 301.780,334.544 300.634,334.356 300.347 C 334.168 300.061,333.776 299.358,333.486 298.785 C 333.195 298.212,332.581 297.118,332.121 296.354 C 331.660 295.590,331.084 294.575,330.840 294.097 C 330.596 293.620,330.301 293.151,330.186 293.056 C 330.070 292.960,329.397 291.842,328.691 290.571 C 327.985 289.300,327.203 288.091,326.953 287.883 C 326.631 287.616,309.352 287.480,267.562 287.416 C 209.675 287.328,208.616 287.314,208.132 286.652 C 207.291 285.502,207.403 197.394,208.247 196.903 C 208.956 196.490,312.089 196.382,312.713 196.794 " stroke="none" fill="#554243" fill-rule="evenodd"></path></g></svg>